<?xml version="1.0" encoding="UTF-8" ?>
<!DOCTYPE svg PUBLIC "-//W3C//DTD SVG 1.1//EN" "http://www.w3.org/Graphics/SVG/1.1/DTD/svg11.dtd">
<svg width="171pt" height="176pt" viewBox="0 0 171 176" version="1.1" xmlns="http://www.w3.org/2000/svg">
<path fill="#ffffff" stroke="#ffffff" stroke-width="0.09375" opacity="1.00" d=" M 66.40 45.54 C 67.71 44.65 69.51 45.15 71.01 44.97 C 81.04 45.09 91.08 44.88 101.11 45.06 C 103.18 44.92 104.30 47.19 104.00 48.99 C 103.96 59.69 104.10 70.41 103.93 81.11 C 104.05 83.13 101.76 84.14 100.03 83.87 C 89.68 83.87 79.32 83.88 68.97 83.87 C 67.22 84.16 65.06 83.03 65.18 81.04 C 65.02 70.70 65.18 60.34 65.10 49.99 C 65.18 48.46 64.88 46.50 66.40 45.54 M 77.10 53.18 C 73.89 54.45 74.09 58.19 73.68 61.02 C 73.04 61.15 71.76 61.42 71.13 61.56 C 70.93 62.92 70.91 64.30 71.00 65.68 C 71.71 65.83 73.12 66.13 73.83 66.29 C 74.09 71.15 73.62 76.02 74.02 80.88 C 75.98 81.06 77.97 81.07 79.94 80.89 C 80.26 75.99 79.83 71.07 80.10 66.17 C 81.36 66.04 82.63 65.91 83.90 65.78 C 84.42 64.36 84.69 62.87 84.91 61.38 C 83.25 61.29 81.60 61.32 79.95 61.22 C 80.04 59.79 79.99 58.21 80.96 57.04 C 82.45 56.90 83.95 56.99 85.44 57.34 C 85.91 56.15 86.28 54.93 86.55 53.68 C 83.64 52.27 80.13 52.00 77.10 53.18 Z" />
<path fill="#6d6861" stroke="#6d6861" stroke-width="0.09375" opacity="1.00" d=" M 52.47 118.22 C 53.46 118.30 54.02 118.85 54.15 119.86 C 54.29 121.91 54.18 123.97 54.29 126.03 C 55.77 126.38 57.27 126.56 58.81 126.55 C 59.35 123.78 57.37 119.87 60.22 117.98 C 61.01 121.14 60.71 124.44 60.68 127.67 C 57.93 128.05 55.11 128.05 52.35 127.86 C 52.22 124.65 52.23 121.43 52.47 118.22 Z" />
<path fill="#6d6861" stroke="#6d6861" stroke-width="0.09375" opacity="1.00" d=" M 79.48 118.65 C 79.75 118.54 80.28 118.33 80.55 118.22 C 80.73 120.45 80.55 122.70 80.84 124.92 C 81.19 126.75 84.25 126.91 84.82 125.14 C 85.07 123.06 84.90 120.94 85.27 118.88 C 85.77 117.06 87.46 119.77 87.29 120.53 C 89.20 118.36 92.25 117.98 94.69 119.54 C 94.46 122.65 88.98 118.18 89.60 121.56 C 91.20 122.26 93.02 122.57 94.48 123.57 C 95.83 124.82 94.63 127.18 93.09 127.61 C 91.34 128.46 89.60 127.41 87.87 127.11 C 86.17 126.77 84.58 127.56 82.97 127.93 C 81.18 128.08 79.13 127.03 78.92 125.09 C 78.57 123.06 78.62 120.95 78.93 118.92 L 79.48 118.65 M 87.01 121.31 C 87.11 122.82 85.98 125.37 87.94 126.11 C 89.71 126.20 91.50 126.24 93.27 125.98 C 93.19 124.17 91.30 124.27 90.10 123.68 C 88.81 123.29 87.97 122.17 87.01 121.31 Z" />
<path fill="#6e6962" stroke="#6e6962" stroke-width="0.09375" opacity="1.00" d=" M 61.71 118.53 L 63.21 118.60 C 63.30 119.45 63.47 121.17 63.56 122.02 C 65.52 121.07 66.25 117.91 68.85 118.55 C 67.84 120.09 66.66 121.50 65.62 123.01 C 66.82 124.74 68.21 126.33 69.34 128.10 C 66.31 128.87 66.00 125.13 63.73 124.46 C 63.16 125.78 64.18 128.41 61.76 128.25 C 61.46 125.02 61.48 121.76 61.71 118.53 Z" />
<path fill="#6e6962" stroke="#6e6962" stroke-width="0.09375" opacity="1.00" d=" M 69.67 118.63 C 71.78 118.51 73.90 118.50 76.01 118.69 L 76.02 120.06 C 74.45 120.22 72.88 120.24 71.31 120.40 C 70.09 124.48 76.88 120.33 76.04 123.86 C 74.52 123.96 73.00 124.05 71.48 124.13 C 71.49 124.64 71.50 125.65 71.50 126.16 C 73.04 126.76 76.40 125.19 76.14 127.92 C 74.01 128.08 71.87 128.09 69.74 127.92 C 69.47 124.84 69.50 121.72 69.67 118.63 Z" />
<path fill="#6e6962" stroke="#6e6962" stroke-width="0.09375" opacity="1.00" d=" M 99.24 119.24 C 102.39 117.07 107.50 120.01 106.63 123.89 C 106.48 127.13 102.27 129.02 99.61 127.42 C 96.37 126.00 96.11 120.92 99.24 119.24 M 99.49 121.33 C 98.37 122.84 98.96 125.89 101.07 126.19 C 102.92 126.98 105.12 124.99 104.80 123.05 C 105.00 120.32 100.99 119.13 99.49 121.33 Z" />
<path fill="#736e67" stroke="#736e67" stroke-width="0.09375" opacity="1.00" d=" M 107.42 118.45 C 110.49 118.50 111.34 122.38 113.57 124.02 C 113.63 122.20 113.57 120.37 113.66 118.54 L 115.32 118.54 C 115.53 121.76 115.54 124.99 115.28 128.21 C 112.14 127.75 111.29 124.04 109.31 122.01 C 109.23 124.01 109.26 126.03 109.11 128.03 L 107.44 128.02 C 107.15 124.84 107.20 121.63 107.42 118.45 Z" />
<path fill="#f7f6f1" stroke="#f7f6f1" stroke-width="0.09375" opacity="1.00" d=" M 99.49 121.33 C 100.99 119.13 105.00 120.32 104.80 123.05 C 105.12 124.99 102.92 126.98 101.07 126.19 C 98.96 125.89 98.37 122.84 99.49 121.33 Z" />
<path fill="#e5e4df" stroke="#e5e4df" stroke-width="0.09375" opacity="1.00" d=" M 87.01 121.31 C 87.97 122.17 88.81 123.29 90.10 123.68 C 91.30 124.27 93.19 124.17 93.27 125.98 C 91.50 126.24 89.71 126.20 87.94 126.11 C 85.98 125.37 87.11 122.82 87.01 121.31 Z" />
<path fill="#6d6861" stroke="#6d6861" stroke-width="0.09375" opacity="1.00" d=" M 51.64 134.66 C 53.69 134.44 55.77 134.45 57.83 134.62 C 59.18 138.50 51.67 133.91 53.39 138.13 C 54.97 138.74 58.19 137.25 58.24 139.86 C 56.69 139.95 55.15 140.03 53.60 140.11 C 53.20 141.47 54.17 145.08 51.60 143.77 C 51.50 140.73 51.51 137.69 51.64 134.66 Z" />
<path fill="#6e6962" stroke="#6e6962" stroke-width="0.09375" opacity="1.00" d=" M 102.56 134.75 C 104.91 134.01 107.73 135.10 108.65 137.46 C 110.02 140.10 107.87 143.39 105.11 143.89 C 102.82 144.67 101.10 142.65 99.50 141.40 C 98.05 142.31 96.84 143.73 95.08 144.01 C 92.37 144.19 89.39 141.89 89.74 139.01 C 89.65 136.35 92.42 134.28 94.95 134.56 C 96.96 134.54 98.16 136.35 99.50 137.55 C 100.47 136.58 101.21 135.23 102.56 134.75 M 93.41 136.42 C 89.75 137.92 92.48 144.19 96.06 141.91 C 99.43 140.30 96.75 134.79 93.41 136.42 M 101.57 137.51 C 100.77 139.10 101.17 141.49 103.05 142.10 C 105.02 143.15 107.39 141.13 107.05 138.99 C 107.20 136.15 102.96 135.13 101.57 137.51 Z" />
<path fill="#6e6962" stroke="#6e6962" stroke-width="0.09375" opacity="1.00" d=" M 115.50 134.59 C 115.85 134.52 116.55 134.37 116.90 134.29 C 116.04 136.00 114.71 137.40 113.64 138.97 C 114.77 140.75 116.19 142.33 117.33 144.10 C 114.40 144.81 113.99 141.17 111.74 140.45 C 111.18 141.78 112.15 144.39 109.75 144.24 C 109.49 141.02 109.51 137.78 109.71 134.56 L 111.20 134.56 C 111.29 135.43 111.47 137.15 111.56 138.01 C 113.16 137.21 113.83 135.17 115.50 134.59 Z" />
<path fill="#6e6962" stroke="#6e6962" stroke-width="0.09375" opacity="1.00" d=" M 60.82 134.73 L 62.00 134.40 C 64.42 135.49 64.29 138.99 65.60 141.12 C 65.72 139.36 65.40 137.27 66.93 135.99 C 68.90 133.78 73.21 134.09 74.25 137.08 C 72.45 137.07 70.58 135.86 68.82 136.58 C 66.45 137.89 67.17 141.97 69.90 142.23 C 70.90 141.98 72.90 141.48 73.90 141.23 C 74.11 143.52 71.51 143.75 69.96 144.04 C 68.64 143.73 67.57 142.86 66.40 142.23 C 66.32 142.73 66.16 143.72 66.08 144.22 C 64.46 143.47 63.01 141.89 61.05 142.41 C 59.76 143.04 58.56 143.92 57.10 144.13 C 58.20 140.95 59.28 137.73 60.82 134.73 M 61.59 136.99 C 61.13 138.21 60.71 139.46 60.42 140.74 C 61.09 140.77 62.41 140.82 63.08 140.85 C 62.90 139.45 62.62 138.02 61.59 136.99 Z" />
<path fill="#6e6962" stroke="#6e6962" stroke-width="0.09375" opacity="1.00" d=" M 74.90 134.69 C 76.94 134.50 79.00 134.50 81.05 134.68 L 81.08 136.02 C 79.50 136.22 77.92 136.29 76.35 136.53 C 76.50 139.05 79.43 138.09 81.13 138.52 C 81.35 141.01 77.80 139.59 76.31 140.40 C 76.41 143.04 79.39 142.12 81.17 142.52 L 81.08 143.91 C 79.01 144.09 76.93 144.09 74.86 143.92 C 74.64 140.85 74.68 137.76 74.90 134.69 Z" />
<path fill="#736e67" stroke="#736e67" stroke-width="0.09375" opacity="1.00" d=" M 81.93 134.67 C 84.19 134.58 86.66 134.14 88.76 135.16 C 89.04 137.49 88.60 139.85 89.34 142.14 C 88.32 145.21 84.32 143.76 81.92 143.94 C 81.56 140.86 81.61 137.74 81.93 134.67 M 83.30 136.45 C 83.30 138.71 86.90 139.14 87.57 137.13 C 86.57 135.71 84.73 136.34 83.30 136.45 M 83.33 140.40 C 83.19 143.09 87.99 143.17 87.74 140.39 C 86.31 139.89 84.75 139.88 83.33 140.40 Z" />
<path fill="#f7f6f1" stroke="#f7f6f1" stroke-width="0.09375" opacity="1.00" d=" M 83.30 136.45 C 84.73 136.34 86.57 135.71 87.57 137.13 C 86.90 139.14 83.30 138.71 83.30 136.45 Z" />
<path fill="#f7f6f1" stroke="#f7f6f1" stroke-width="0.09375" opacity="1.00" d=" M 93.41 136.42 C 96.75 134.79 99.43 140.30 96.06 141.91 C 92.48 144.19 89.75 137.92 93.41 136.42 Z" />
<path fill="#f7f6f1" stroke="#f7f6f1" stroke-width="0.09375" opacity="1.00" d=" M 61.59 136.99 C 62.62 138.02 62.90 139.45 63.08 140.85 C 62.41 140.82 61.09 140.77 60.42 140.74 C 60.71 139.46 61.13 138.21 61.59 136.99 Z" />
<path fill="#f7f6f1" stroke="#f7f6f1" stroke-width="0.09375" opacity="1.00" d=" M 101.57 137.51 C 102.96 135.13 107.20 136.15 107.05 138.99 C 107.39 141.13 105.02 143.15 103.05 142.10 C 101.17 141.49 100.77 139.10 101.57 137.51 Z" />
<path fill="#f7f6f1" stroke="#f7f6f1" stroke-width="0.09375" opacity="1.00" d=" M 83.33 140.40 C 84.75 139.88 86.31 139.89 87.74 140.39 C 87.99 143.17 83.19 143.09 83.33 140.40 Z" />
</svg>
