<svg xmlns="http://www.w3.org/2000/svg" width="156" height="40" viewBox="0 0 156 40">
    <path fill="#FFF" fill-rule="nonzero" d="M134.948 22.703l.07-1.325c.026-.48.042-.96.059-1.437.039-1.12.077-2.277.236-3.428.244-1.75 1.615-2.98 3.333-3 1.804 0 3.177 1.197 3.457 2.98.177 1.134.22 2.29.26 3.406.018.484.036.974.065 1.473l.077 1.33h-7.557zm20.435-.235c-.43-3.392-1.046-6.662-1.734-9.133C151.897 5.223 146.197.061 139.119 0c-7.053.061-12.795 5.223-14.546 13.335-1.022 3.633-1.697 7.801-2.04 11.9a66.445 66.445 0 0 0-.268 5.669c-.038 3.96.593 6.533 1.927 7.867.829.828 1.993 1.229 3.56 1.229 2.865 0 4.988-2.182 6.167-4.231.998-1.734 2.242-3.894 5.213-3.894 2.972 0 4.214 2.159 5.212 3.894 1.18 2.049 3.302 4.231 6.168 4.231 1.565 0 2.73-.401 3.558-1.229 1.335-1.333 1.966-3.906 1.928-7.867-.029-3.053-.2-5.555-.615-8.436zm-141.888.235l.07-1.325c.026-.48.042-.96.059-1.437.038-1.12.077-2.277.236-3.428.244-1.75 1.615-2.98 3.333-3 1.803 0 3.177 1.197 3.457 2.98.177 1.134.22 2.29.26 3.406.018.484.036.974.065 1.473l.077 1.33h-7.557zm19.625-.235c-.43-3.392-1.046-6.662-1.734-9.133C29.634 5.223 23.934.061 16.856 0 9.803.061 4.06 5.223 2.31 13.335 1.288 16.968.613 21.136.27 25.235a66.446 66.446 0 0 0-.268 5.669c-.038 3.96.593 6.533 1.927 7.867C2.758 39.6 3.922 40 5.49 40c2.866 0 4.988-2.182 6.167-4.231.998-1.734 2.242-3.894 5.213-3.894 2.972 0 4.214 2.159 5.212 3.894C23.26 37.818 25.383 40 28.249 40c1.565 0 2.73-.401 3.559-1.229 1.334-1.333 1.964-3.906 1.927-7.867-.029-3.053-.2-5.555-.615-8.436zm67.338-5.044c-1.192.19-2.361.234-3.6.28-.524.019-1.055.038-1.592.07l-1.072.064V10.27l1.065.058c.52.029 1.041.046 1.559.066 1.186.038 2.414.082 3.624.252 1.736.247 2.912 1.584 2.928 3.323.016 1.79-1.156 3.176-2.912 3.455zM117.654 32.7c-4.214-1.676-6.469-4.35-8.61-7.532l-.688-1.026 1.098-.62c.294-.167.582-.32.863-.472.556-.297 1.083-.579 1.53-.895.906-.64 1.519-1.162 1.991-1.694 2.013-2.256 2.667-5.468 2.176-8.819-.53-3.635-2.66-6.93-5.621-8.81C107.422.94 104.135.044 99.482.012 95.006-.009 90.347 0 85.87.02a17.44 17.44 0 0 0-2.625.22C81.378.53 80.31 1.58 80.067 3.364c-.11.8-.167 1.58-.17 2.316-.01 9.533-.01 19.073 0 28.609.003.762.06 1.54.168 2.308.262 1.831 1.194 2.774 2.936 2.964 2.087.222 4.595.236 6.37.04 2.473-.27 3.594-1.409 3.656-3.93.042-1.732.041-3.502.041-5.214 0-.766 0-1.53.003-2.295V25.697s1.479-.121 1.958-.121c1.768 0 2.136 1.097 2.765 2.614l.125.317c.069.173.135.347.214.518l.137.307c1.411 3.177 2.744 6.176 5.138 8.598 1.586 1.608 4.068 2.07 6.354 2.07.983 0 1.949-.168 2.87-.499 2.757-.987 4.905-3.904 5.043-6.77-.008-.01-.014-.02-.02-.03zm-57-4.187a8.723 8.723 0 0 1-2.25.38c-.535.02-1.07.026-1.612.026-.378 0-.759-.004-1.147-.006-.393-.004-.79-.004-1.197-.004h-1.009v-6.206l1.062.051c.565.027 1.126.05 1.683.07 1.333.049 2.712.1 4.07.243 1.42.14 2.327 1.158 2.36 2.655.034 1.395-.663 2.388-1.96 2.791zM53.438 10.27l.928.043c.417.02.833.034 1.25.049 1.008.03 2.053.064 3.086.192 1.39.18 2.222 1.122 2.29 2.583.072 1.609-.741 2.741-2.126 2.959-1.034.163-2.087.209-3.107.256-.455.02-.914.04-1.376.071l-.945.063V10.27zm15.25 8.2s6.586-2.21 5.573-10.04c-.484-3.741-3.235-6.359-6.53-7.198C65.332.622 62.627.218 59.674.1 57.984.03 56.177 0 53.987 0c-1.557 0-3.113.016-4.672.031-1.157.012-2.313.024-3.47.03a17.16 17.16 0 0 0-2.612.222c-1.835.3-2.883 1.374-3.115 3.19-.11.863-.163 1.63-.164 2.342-.012 9.565-.014 19.133.003 28.706 0 .889.065 1.572.19 2.366.259 1.614 1.154 2.524 2.82 2.861.744.147 1.382.22 1.945.223l3.098.013c2.008.008 4.016.016 6.023.016 2.916 0 5.32-.018 7.566-.059 3.5-.064 6.454-.805 9.031-2.269 3.01-1.705 4.86-4.6 5.373-7.977 1.15-7.563-7.313-11.224-7.313-11.224z"/>
</svg>
