<?xml version="1.0" encoding="UTF-8"?>
<svg width="222px" height="57px" viewBox="0 0 222 57" version="1.1" xmlns="http://www.w3.org/2000/svg" xmlns:xlink="http://www.w3.org/1999/xlink">
    <!-- Generator: Sketch 58 (84663) - https://sketch.com -->
    <title>LiteBit logo Main@1x</title>
    <desc>Created with Sketch.</desc>
    <defs>
        <circle id="path-1" cx="28.2357143" cy="28.2357143" r="28.2357143"></circle>
    </defs>
    <g id="Styles-&amp;-Guidelines" stroke="none" stroke-width="1" fill="none" fill-rule="evenodd">
        <g id="Logo" transform="translate(-188.000000, -416.000000)">
            <g id="LiteBit-logo-Main" transform="translate(186.000000, 416.000000)">
                <g id="Group-3" transform="translate(67.000000, 7.000000)">
                    <g id="Group-2" transform="translate(0.000000, 1.000000)">
                        <polygon id="Fill-1" fill="#064ACB" points="10.2335118 0 0 0 0 43.5429639 22.7338242 43.5429639 22.7338242 34.8343711 10.2335118 34.8343711"></polygon>
                        <polygon id="Fill-2" fill="#064ACB" points="27 43.47 36.39 43.47 36.39 11 27 11"></polygon>
                        <path d="M54.1096008,1 L44.7208357,1 L44.7208357,10.2784948 L41,10.2784948 L41,16.9468393 L44.7208357,16.9468393 L44.7208357,35.7352489 C44.7208357,40.6640494 47.4956001,43.2157885 52.5743595,43.2157885 C54.6409869,43.2157885 56.5903468,42.9838122 58.5980571,42.693981 L58.5980571,36.1992015 C57.5936354,36.1992015 57.2395669,36.1407902 56.1762282,36.3149115 C54.936705,36.3149115 54.1096008,35.9093702 54.1096008,34.05356 L54.1096008,16.9468393 L58.5980571,16.9468393 L58.5980571,10.2784948 L54.1096008,10.2784948 L54.1096008,1 Z" id="Fill-4" fill="#064ACB"></path>
                        <path d="M77.8854983,21.5844842 L71.3898982,21.5844842 L71.3898982,19.4388427 C71.3898982,17.1774912 72.0396848,15.0897047 74.6966153,15.0897047 C77.1178777,15.0897047 77.8854983,17.2353462 77.8854983,18.3952276 L77.8854983,21.5844842 Z M74.6376982,9.00102275 C67.373911,9.05887774 62,11.7841818 62,20.1347715 L62,33.3563067 C62,40.778435 67.9058636,43.5042954 74.6376982,43.4458841 C82.7869402,43.3301741 87.3932305,39.5028437 86.9207614,31.152254 L77.5903468,31.152254 C77.4130292,33.8781143 77.7676643,36.9516609 74.2836297,36.7775396 C72.2164358,36.6618296 71.3898982,35.1537057 71.3898982,33.3563067 L71.3898982,27.6731661 L87.27483,27.6731661 L87.27483,18.3952276 C87.27483,11.3780842 81.1927819,8.94261145 74.6376982,9.00102275 L74.6376982,9.00102275 Z" id="Fill-6" fill="#064ACB"></path>
                        <path d="M102.393187,35.6625977 L102.393187,24.9349465 C106.82216,25.1085115 109.774808,24.9928015 109.774808,30.0378684 C109.774808,35.894574 107.590347,35.5468877 102.393187,35.6625977 L102.393187,35.6625977 Z M102.393187,7.82822586 C106.055105,7.82822586 109.066105,7.65410458 109.066105,11.9453876 C109.066105,17.1061644 106.94056,16.8163331 102.393187,17.1061644 L102.393187,7.82822586 Z M114.440582,20.5273973 L114.440582,20.4116873 C118.042451,18.4980221 119.459858,15.0767892 119.459858,11.2494587 C119.459858,2.49332776 113.318326,0 105.464236,0 L92,0 L92,43.4913799 L106.645409,43.4913799 C115.089802,43.4913799 120.168561,39.7219044 120.168561,30.9073622 C120.168561,25.5146091 119.16414,23.1948463 114.440582,20.5273973 L114.440582,20.5273973 Z" id="Fill-8" fill="#FF9F2E"></path>
                        <polygon id="Fill-10" fill="#FF9F2E" points="126 43.4738974 135.389898 43.4738974 135.389898 11 126 11"></polygon>
                        <path d="M156.597491,16.9468393 L156.597491,10.2784948 L152.109034,10.2784948 L152.109034,1 L142.720269,1 L142.720269,10.2784948 L139,10.2784948 L139,16.9468393 L142.720269,16.9468393 L142.720269,35.7352489 C142.720269,40.6640494 145.495034,43.2157885 150.573793,43.2157885 C152.640987,43.2157885 154.58978,42.9838122 156.597491,42.693981 L156.597491,36.1992015 C155.593635,36.1992015 155.239567,36.1407902 154.176228,36.3149115 C152.936138,36.3149115 152.109034,35.9093702 152.109034,34.05356 L152.109034,16.9468393 L156.597491,16.9468393 Z" id="Fill-13" fill="#FF9F2E"></path>
                    </g>
                    <polygon id="Fill-3" fill="#064ACB" points="27 8.63013699 36.39 8.63013699 36.39 -3.90798505e-14 27 -3.90798505e-14"></polygon>
                    <polygon id="Fill-12" fill="#FF9F2E" points="126 8.63013699 135.39 8.63013699 135.39 -3.90798505e-14 126 -3.90798505e-14"></polygon>
                </g>
                <g id="Group">
                    <g id="Group-45" transform="translate(0.264286, 0.264286)">
                        <g>
                            <mask id="mask-2" fill="white">
                                <use xlink:href="#path-1"></use>
                            </mask>
                            <g id="Mask"></g>
                            <path d="M7.63607367,9.04355169 C10.3066186,9.25720882 13.0430215,6.83512539 13.1378571,4.64196032 C13.1391743,4.63305793 13.1391743,4.62542732 13.14115,4.61716083 C11.11799,5.86794531 9.26869532,7.35591466 7.63607367,9.04355169" id="Fill-1" fill="#064ACB" mask="url(#mask-2)"></path>
                            <path d="M17.4922559,5.75169088 C19.7403137,7.96857383 24.9855638,7.2298281 26.3463166,3.2648816 C26.3901907,1.97595111 25.3070891,0.938219995 23.7407173,0.548182913 C21.8056719,0.865249481 19.9380747,1.37539732 18.1562613,2.0566707 C16.6940087,2.94200322 15.8401003,4.12244657 17.4922559,5.75169088" id="Fill-3" fill="#064ACB" mask="url(#mask-2)"></path>
                            <path d="M30.8994609,3.46689789 C31.6382077,7.16740442 39.021159,8.64708965 39.7786164,4.09809229 C39.6334478,3.33108762 39.1785862,2.59835887 38.5269406,1.98721266 C36.8687929,1.34308394 35.1345122,0.852873536 33.341519,0.532749326 C30.9091388,0.953761166 30.8994609,2.20838938 30.8994609,3.46689789" id="Fill-6" fill="#FF9F2E" mask="url(#mask-2)"></path>
                            <path d="M49.012938,9.04873707 C47.3867442,7.28548434 45.5361152,5.73644656 43.5078616,4.43957772 C43.516839,4.50776626 43.5226102,4.57466822 43.5367176,4.64478663 C43.91954,6.55985535 46.0484688,8.56305454 48.1030133,8.98633812 C48.4262001,9.0525968 48.7295083,9.068679 49.012938,9.04873707" id="Fill-8" fill="#FF9F2E" mask="url(#mask-2)"></path>
                            <path d="M11.1137881,14.6761008 C10.804945,17.4872014 7.85935343,21.2192472 4.91376188,19.7262984 C1.23273757,16.7410531 4.91376188,13.0090072 8.01441843,11.0901539 C10.0849544,10.6394647 11.5384475,12.1278479 11.1137881,14.6761008" id="Fill-10" fill="#064ACB" mask="url(#mask-2)"></path>
                            <path d="M25.9254315,13.1720136 C25.6482432,18.2085099 18.9619673,19.6778624 15.990794,17.4741546 C13.0196208,14.5360914 16.7334251,9.39367848 20.8101059,9.08427353 C23.6507994,8.81466756 25.999435,10.5504165 25.9254315,13.1720136" id="Fill-12" fill="#064ACB" mask="url(#mask-2)"></path>
                            <path d="M41.6793487,14.1871651 C42.0828182,16.773622 40.132932,18.8620574 37.0602072,18.6283454 C33.9881311,18.3946333 31.2008188,15.8218475 31.0814645,13.1650817 C30.9627588,10.5076648 33.2505993,8.78379424 36.041155,9.09237229 C38.8317106,9.40095033 41.2758793,11.6007082 41.6793487,14.1871651" id="Fill-14" fill="#FF9F2E" mask="url(#mask-2)"></path>
                            <path d="M52.8645531,16.3557114 C53.2017708,18.7102 51.9631317,20.5044938 50.0011378,20.2134752 C48.0391439,19.923099 45.9701796,17.4613253 45.5383844,14.9661455 C45.1072414,12.4716081 46.5330788,11.0068785 48.5922592,11.4411579 C50.6507874,11.8754374 52.5279877,14.0012227 52.8645531,16.3557114" id="Fill-16" fill="#FF9F2E" mask="url(#mask-2)"></path>
                            <path d="M9.94516316,28.0731947 C10.0343691,30.0674974 8.54391404,33.0138897 6.30855706,33.0138897 C1.09229002,32.2774526 1.83719197,24.1740689 6.24800122,22.9670587 C8.24764622,22.7655685 9.94646544,25.0212292 9.94516316,28.0731947" id="Fill-18" fill="#064ACB" mask="url(#mask-2)"></path>
                            <path d="M25.7495508,28.1775202 C25.682258,31.6674106 22.7200802,34.6287062 19.7585494,34.6287062 C12.353752,33.8885441 12.353752,22.7822299 19.7721374,22.0258929 C22.9763105,21.8796721 25.7495508,24.6209894 25.7495508,28.1775202" id="Fill-21" fill="#064ACB" mask="url(#mask-2)"></path>
                            <path d="M42.7975292,28.1476557 C42.7988275,31.3757204 40.4180917,34.1050618 37.2892359,34.2667573 C34.1597308,34.4278033 31.4328597,31.7017088 31.4322102,28.1450582 C31.4322102,24.5877581 34.1571332,21.8642611 37.2859889,22.0272554 C40.4148446,22.1902496 42.7962298,24.919591 42.7975292,28.1476557" id="Fill-23" fill="#FF9F2E" mask="url(#mask-2)"></path>
                            <path d="M53.7092476,28.0772502 C53.8791947,30.0670468 52.3893908,33.0140828 50.1540338,33.0140828 C44.9377667,32.2770019 45.6826687,24.1742621 50.2308681,23.0425693 C52.1693061,23.2382659 53.7085965,25.4707519 53.7092476,28.0772502" id="Fill-25" fill="#FF9F2E" mask="url(#mask-2)"></path>
                            <path d="M11.113169,41.445259 C11.54228,43.9892268 10.0697381,45.4758092 7.97113764,45.026453 C5.87188507,44.5764464 3.96305863,42.4077008 3.6109007,40.0093998 C3.25809062,37.6110988 4.5128163,35.7818091 6.53250727,36.0815967 C8.55154609,36.3820346 10.684058,38.9012911 11.113169,41.445259" id="Fill-28" fill="#064ACB" mask="url(#mask-2)"></path>
                            <path d="M25.9059258,43.0904993 C26.3762995,48.7289023 18.8895722,47.9820766 16.6436849,45.7402941 C13.6493865,42.7523388 15.1468628,37.5226009 19.8342449,37.6499007 C23.0149918,37.858803 25.8320005,40.4191615 25.9059258,43.0904993" id="Fill-30" fill="#064ACB" mask="url(#mask-2)"></path>
                            <path d="M41.679558,41.9305385 C41.2769262,44.5165286 38.8332561,46.7158225 36.0420649,47.0238796 C33.2508737,47.3325866 30.9628101,45.6077267 31.08146,42.9495966 C31.2001099,40.2921165 33.987411,37.7197745 37.0599906,37.4877568 C40.1319219,37.2550892 42.0821898,39.3445484 41.679558,41.9305385" id="Fill-32" fill="#FF9F2E" mask="url(#mask-2)"></path>
                            <path d="M52.865099,39.9455118 C52.4218175,43.4299039 49.4555905,46.3724508 46.4887154,44.165862 C44.2638831,42.6945885 45.7473206,36.8101374 50.0194134,36.0799642 C51.968815,35.790723 53.1995043,37.5885176 52.865099,39.9455118" id="Fill-34" fill="#FF9F2E" mask="url(#mask-2)"></path>
                            <path d="M13.1194308,51.6532943 C12.7291429,49.7764818 10.5078582,47.8029985 8.36621069,47.3743399 C7.95946879,47.1879942 7.60011429,47.0906874 7.28090746,47.0595238 C8.99870094,48.9007207 10.9712017,50.5123246 13.14115,51.8542677 C13.1339103,51.7868526 13.1299614,51.7226174 13.1194308,51.6532943" id="Fill-36" fill="#064ACB" mask="url(#mask-2)"></path>
                            <path d="M35.6605469,49.3256134 C31.5251691,50.1392669 30.034714,52.3561499 31.5251691,54.5730329 C31.8741791,55.2659299 32.4328555,55.7069817 33.0963652,55.9388084 C34.7710923,55.6520924 36.3976352,55.2271844 37.9584132,54.6621473 C38.7150356,54.0170363 39.3557555,53.181427 39.7477406,52.1817956 C40.103262,50.3271822 38.372537,49.0330856 35.6605469,49.3256134" id="Fill-40" fill="#FF9F2E" mask="url(#mask-2)"></path>
                            <path d="M21.4353768,49.3256134 C17.2999989,50.1392669 15.8095439,52.3561499 17.2999989,54.5730329 C17.6490089,55.2659299 18.2076854,55.7069817 18.8711951,55.9388084 C20.5459222,55.6520924 22.172465,55.2271844 23.733243,54.6621473 C24.4898654,54.0170363 25.1305853,53.181427 25.5225704,52.1817956 C25.8780918,50.3271822 24.1473668,49.0330856 21.4353768,49.3256134" id="Fill-40" fill="#064ACB" mask="url(#mask-2)" transform="translate(21.152216, 52.611565) scale(-1, 1) translate(-21.152216, -52.611565) "></path>
                            <path d="M49.1905211,47.0820835 C48.8613306,47.0406381 48.5008507,47.0551111 48.1142964,47.1353705 C45.9814027,47.7544203 43.4267542,49.5661773 43.3302785,52.0318509 C45.4983727,50.6509947 47.4722119,48.9872571 49.1905211,47.0820835" id="Fill-43" fill="#FF9F2E" mask="url(#mask-2)"></path>
                        </g>
                    </g>
                </g>
            </g>
        </g>
    </g>
</svg>