<?xml version="1.0" standalone="no"?>
<!DOCTYPE svg PUBLIC "-//W3C//DTD SVG 1.1//EN" "http://www.w3.org/Graphics/SVG/1.1/DTD/svg11.dtd" >
<svg xmlns="http://www.w3.org/2000/svg">
<metadata>Generated by IcoMoon</metadata>
<defs>
<font id="beyond-bespoke-members-info-microsite" horiz-adv-x="512">
<font-face units-per-em="512" ascent="480" descent="-32" />
<missing-glyph horiz-adv-x="512" />
<glyph unicode="&#x20;" d="" horiz-adv-x="256" />
<glyph unicode="&#xe600;" d="M445.188 387.576c-21.873 21.882-50.971 33.939-81.903 33.939s-60.020-12.048-81.903-33.93c-30.299-30.308-41.245-75.32-28.655-116.104l-212.944-212.935c-2.601-2.601-3.368-6.521-1.932-9.916l15.75-37.154c1.418-3.341 4.705-5.5 8.318-5.5 0.108 0 0.217 0 0.334 0.009l61.601 2.258c3.965 0.144 7.378 2.863 8.399 6.701l12.553 47.178 54.656 10.666c3.784 0.74 6.683 3.793 7.216 7.613l9.663 68.844 51.351-1.238c2.51-0.091 4.858 0.903 6.601 2.646l47.133 47.142c13.33-5.147 27.726-7.848 42.012-7.848 30.887 0 59.913 12.012 81.74 33.839 45.164 45.147 45.164 118.632 0.009 163.788zM432.409 236.548c-18.414-18.414-42.906-28.548-68.971-28.548-13.853 0-27.825 2.998-40.405 8.679-3.432 1.553-7.459 0.813-10.106-1.842l-48.687-48.687-55.523 1.337c-0.072 0-0.144 0-0.216 0-4.488 0-8.309-3.305-8.941-7.776l-9.889-70.442-53.888-10.512c-3.395-0.659-6.114-3.197-6.999-6.548l-12.282-46.167-48.704-1.788-10.945 25.82 212.583 212.583c2.483 2.483 3.305 6.186 2.095 9.482-12.995 35.627-4.136 75.924 22.596 102.666 18.469 18.469 43.024 28.637 69.133 28.637s50.664-10.169 69.133-28.647c38.139-38.111 38.139-100.128 0.018-138.248zM369.589 360.329c-6.457-6.457-10.015-15.037-10.015-24.176s3.558-17.719 10.015-24.176 15.046-10.006 24.176-10.006c9.13 0 17.71 3.558 24.185 10.006 13.321 13.339 13.321 35.014 0 48.353-12.933 12.915-35.447 12.915-48.361 0zM405.171 324.764c-6.105-6.105-16.735-6.096-22.813-0.009-3.043 3.053-4.724 7.099-4.724 11.407s1.68 8.354 4.724 11.406c3.043 3.043 7.099 4.724 11.406 4.724s8.363-1.689 11.406-4.724c6.276-6.294 6.276-16.527 0-22.803z" />
<glyph unicode="&#xe601;" d="M245.799 398.052c94.583 0 172.629-72.149 182.022-164.293l36.585 49.138c2.981 3.991 8.643 4.832 12.635 1.842 4.001-2.971 4.832-8.634 1.851-12.635l-52.2-70.108c-1.436-1.914-3.567-3.197-5.933-3.54-0.433-0.063-0.876-0.099-1.31-0.099-1.933 0-3.829 0.614-5.392 1.788l-70.1 52.2c-4.001 2.971-4.832 8.634-1.851 12.635 2.971 3.991 8.634 4.832 12.635 1.842l55.433-41.272c-5.446 86.040-76.981 154.432-164.375 154.432-90.925 0-164.899-73.974-164.899-164.908s73.974-164.908 164.899-164.908c4.985 0 9.031-4.037 9.031-9.031s-4.046-9.031-9.031-9.031c-100.887 0-182.961 82.084-182.961 182.97s82.075 182.979 182.961 182.979zM220.802 177.323c-1.761-1.761-4.073-2.646-6.385-2.646s-4.624 0.885-6.385 2.646c-3.531 3.531-3.531 9.239 0 12.77l24.998 24.998-24.998 24.998c-3.531 3.531-3.531 9.239 0 12.77s9.239 3.531 12.77 0l24.998-24.998 24.998 24.998c3.531 3.531 9.239 3.531 12.77 0s3.531-9.239 0-12.77l-24.998-24.998 24.998-24.998c3.531-3.531 3.531-9.239 0-12.77-1.761-1.761-4.073-2.646-6.385-2.646s-4.624 0.885-6.385 2.646l-24.998 24.998-24.998-24.998z" />
<glyph unicode="&#xe602;" d="M338.648 439.55h-168.141c-26.054 0-47.26-21.196-47.26-47.242v-356.981c0-26.055 21.205-47.241 47.26-47.241h168.132c26.055 0 47.26 21.196 47.26 47.241v356.972c0.009 26.055-21.196 47.25-47.25 47.25zM141.319 359.877h226.527v-266.959h-226.527v266.959zM367.846 35.327c0-16.094-13.095-29.18-29.197-29.18h-168.141c-16.102 0-29.197 13.086-29.197 29.18v39.529h226.527v-39.529zM141.319 377.94v14.359c0 16.094 13.095 29.18 29.197 29.18h168.132c16.103 0 29.197-13.086 29.197-29.18v-14.368h-226.527zM254.577 18.709c12.688 0 22.939 10.26 22.939 22.93 0 12.661-10.25 22.939-22.939 22.939-12.689 0-22.939-10.277-22.939-22.939 0-12.671 10.25-22.93 22.939-22.93zM254.577 46.517c2.692 0 4.877-2.195 4.877-4.877 0-2.682-2.195-4.868-4.868-4.868-2.691 0-4.886 2.185-4.886 4.868 0 2.682 2.185 4.868 4.877 4.877z" />
<glyph unicode="&#xe603;" d="M413.769 444.95h-315.529c-15.858 0-28.755-12.002-28.755-26.759v-394.343c0-14.748 12.897-26.75 28.755-26.75h315.519c15.858 0 28.755 12.002 28.755 26.75v394.343c0.009 14.757-12.897 26.759-28.746 26.759zM424.462 23.849c0-4.786-4.796-8.688-10.693-8.688h-315.529c-5.897 0-10.693 3.901-10.693 8.688v394.343c0 4.796 4.796 8.697 10.693 8.697h315.519c5.897 0 10.702-3.901 10.702-8.697v-394.343zM389.15 407.137h-266.291c-4.985 0-9.031-4.037-9.031-9.031v-348.194c0-4.994 4.046-9.031 9.031-9.031h266.291c4.985 0 9.031 4.037 9.031 9.031v348.194c0 4.994-4.037 9.031-9.031 9.031zM380.119 58.943h-248.228v330.132h248.228v-330.132zM264.783 28.698c0-4.848-3.93-8.778-8.778-8.778s-8.778 3.93-8.778 8.778c0 4.848 3.93 8.778 8.778 8.778 4.848 0 8.778-3.93 8.778-8.778z" />
<glyph unicode="&#xe604;" d="M331.522 65.599c-0.804 4.931-5.464 8.272-10.358 7.469-4.922-0.804-8.272-5.446-7.469-10.358l8.308-51.152-134.211 0.108 8.273 51.044c0.794 4.922-2.547 9.564-7.469 10.358-4.904 0.804-9.564-2.547-10.358-7.469l-8.823-54.421c-0.072-0.478-0.118-0.957-0.118-1.445 0-8.95 8.011-16.238 17.855-16.238h135.484c9.844 0 17.855 7.288 17.855 16.238 0 0.488-0.036 0.966-0.118 1.445l-8.851 54.421zM439.281 436.118h-368.821c-21.919 0-39.755-17.827-39.755-39.737v-256.42c0-21.918 17.837-39.746 39.755-39.746h368.821c21.928 0 39.773 17.837 39.773 39.746v256.42c0 21.909-17.846 39.737-39.773 39.737zM70.46 418.055h368.821c11.975 0 21.711-9.726 21.711-21.675v-223.104h-412.224v223.104c0 11.948 9.727 21.675 21.692 21.675zM439.281 118.277h-368.821c-11.957 0-21.692 9.726-21.692 21.683v15.245h412.224v-15.245c0-11.957-9.736-21.683-21.711-21.683z" />
<glyph unicode="&#xe605;" d="M363.565 144.215h-170.851c-4.985 0-9.031-4.046-9.031-9.031s4.046-9.031 9.031-9.031h170.851c4.985 0 9.031 4.046 9.031 9.031s-4.037 9.031-9.031 9.031zM363.565 200.099h-170.851c-4.985 0-9.031-4.046-9.031-9.031s4.046-9.031 9.031-9.031h170.851c4.985 0 9.031 4.046 9.031 9.031s-4.037 9.031-9.031 9.031zM363.565 255.983h-170.851c-4.985 0-9.031-4.046-9.031-9.031s4.046-9.031 9.031-9.031h170.851c4.985 0 9.031 4.046 9.031 9.031s-4.037 9.031-9.031 9.031zM192.714 293.806h77.099c4.985 0 9.031 4.046 9.031 9.031s-4.046 9.031-9.031 9.031h-77.099c-4.985 0-9.031-4.046-9.031-9.031s4.046-9.031 9.031-9.031zM434.856 376.73l-55.64 54.846c-4.2 4.136-9.753 6.403-15.642 6.403 0 0 0 0 0 0h-220.242c-12.292 0-22.298-10.007-22.298-22.307v-355.039c0-12.3 10.006-22.307 22.298-22.307h275.855c12.31 0 22.325 10.007 22.325 22.307v300.212c0 5.916-2.421 11.704-6.656 15.886zM416.080 369.875h-43.421l-0.045 42.844 43.466-42.844zM419.188 56.397h-275.855c-2.339 0-4.236 1.906-4.236 4.245v355.039c0 2.339 1.897 4.245 4.236 4.245h211.211l0.054-59.082c0-4.985 4.046-9.022 9.031-9.022h59.813v-291.171c0.009-2.348-1.906-4.253-4.253-4.253zM386.82 24.607c-4.985 0-9.031-4.046-9.031-9.031 0-2.547-2.068-4.624-4.615-4.624h-274.608c-2.547 0-4.624 2.068-4.624 4.624v356.647c0 2.537 2.077 4.606 4.624 4.606 4.985 0 9.031 4.046 9.031 9.031s-4.046 9.031-9.031 9.031c-12.508 0-22.686-10.169-22.686-22.668v-356.656c0-12.508 10.178-22.686 22.686-22.686h274.599c12.508 0 22.677 10.178 22.677 22.686 0.009 4.994-4.037 9.040-9.022 9.040z" />
<glyph unicode="&#xe607;" d="M389.177 412.177h-82.508c-11.867 0-21.512-9.7-21.512-21.63v-363.646c0-11.921 9.636-21.639 21.512-21.639h82.508c11.849 0 21.494 9.709 21.494 21.639v363.646c-0.009 11.921-9.654 21.63-21.494 21.63zM392.699 26.901c0-1.978-1.589-3.577-3.531-3.577h-82.508c-1.959 0-3.549 1.608-3.549 3.577v363.646c0 1.978 1.589 3.577 3.549 3.577h82.508c1.942 0 3.531-1.599 3.531-3.577v-363.646zM233.779 129.277h-82.49c-11.858 0-21.512-9.69-21.512-21.63v-80.747c0-11.921 9.654-21.639 21.512-21.639h82.49c11.858 0 21.503 9.709 21.503 21.639v80.747c0 11.939-9.645 21.63-21.503 21.63zM237.328 26.901c0-1.978-1.599-3.577-3.549-3.577h-82.49c-1.969 0-3.559 1.608-3.559 3.577v80.747c0 1.978 1.589 3.577 3.559 3.577h82.49c1.941 0 3.549-1.599 3.549-3.577v-80.747z" />
<glyph unicode="&#xe608;" d="M318.229 56.586l17.873 169.532 58.892 0.027c2.339 0 4.733 0.316 6.719 0.84 0.668 0.144 1.318 0.334 2.33 0.678 1.716 0.587 3.396 1.319 5.166 2.303l1.219 0.696c1.707 1.093 3.179 2.221 4.462 3.441l1.445 1.554c1.707 1.905 3.152 3.964 4.262 6.15 4.868 9.464 4.109 21.124-2.619 30.327l-131.529 162.37c-5.418 7.414-14.106 11.84-23.264 11.84-9.221 0-17.917-4.444-22.984-11.479l-132.152-163.101c-3.468-4.786-5.302-10.575-5.302-16.743l0.027-1.418c0.082-1.653 0.235-3.639 0.677-5.184 0.451-2.366 1.237-4.624 2.24-6.538 4.796-9.582 14.865-15.768 25.648-15.768l58.892 0.027 17.855-169.55c0.262-30.127 24.881-54.557 55.089-54.557 30.191 0.009 54.782 24.429 55.053 54.557zM226.148 57.082l-19.669 187.133-75.157-0.036c-4.001 0-7.722 2.267-9.564 5.942-0.271 0.524-0.46 1.065-0.731 2.357-0.144 0.515-0.189 1.319-0.216 1.951l-0.009 0.587c0 2.375 0.623 4.434 1.572 5.762l132.161 163.119c1.987 2.745 5.211 4.389 8.643 4.389 3.414 0 6.656-1.653 8.95-4.786l131.538-162.37c1.327-1.815 2.032-3.964 2.032-6.222 0-1.68-0.406-3.351-1.165-4.84-0.433-0.84-1.012-1.661-2.159-2.935-0.433-0.388-1.048-0.84-2.159-1.499-0.632-0.352-1.318-0.641-2.628-1.065-0.93-0.235-1.77-0.361-2.583-0.361l-75.157-0.045-19.679-187.079c0-20.392-16.59-36.983-36.991-36.983-20.419 0-37.028 16.59-37.028 36.983z" />
<glyph unicode="&#xe609;" d="M445.017 283.817c-16.789 0-30.444-13.664-30.444-30.462 0-5.572 1.616-10.729 4.245-15.236l-86.916-94.817c-3.947 1.87-8.3 2.99-12.95 2.99-2.836 0-5.527-0.515-8.137-1.247l-94.61 146.223c4.407 5.283 7.171 11.984 7.171 19.39 0 16.798-13.673 30.462-30.48 30.462-16.789 0-30.444-13.664-30.444-30.453 0-2.764 0.488-5.383 1.183-7.93l-77.225-49.147c-5.311 4.498-12.093 7.306-19.579 7.306-16.78 0-30.444-13.664-30.444-30.453 0-16.789 13.673-30.462 30.462-30.471 0 0 0.009 0 0.018 0 16.789 0.009 30.453 13.682 30.453 30.462 0 2.763-0.487 5.382-1.183 7.929l77.225 49.147c5.31-4.497 12.075-7.315 19.553-7.315 0 0 0.009 0 0.009 0 2.845 0 5.536 0.515 8.137 1.246l94.61-146.214c-4.398-5.283-7.161-11.985-7.161-19.39 0-16.798 13.673-30.462 30.462-30.462 16.798 0 30.462 13.664 30.462 30.462 0 5.581-1.616 10.738-4.245 15.245l86.916 94.817c3.938-1.869 8.291-2.99 12.923-2.998 0 0 0.009 0 0.018 0 16.789 0.009 30.453 13.682 30.453 30.462 0 16.789-13.673 30.453-30.48 30.453zM66.848 218.035c-6.837 0.009-12.4 5.572-12.409 12.409 0 3.305 1.291 6.421 3.63 8.76 2.339 2.348 5.455 3.631 8.769 3.631 4.362 0 8.182-2.267 10.395-5.68 0.018-0.027 0.018-0.063 0.036-0.090 0.009-0.018 0.027-0.027 0.045-0.045 1.21-1.915 1.933-4.155 1.933-6.583 0-6.827-5.563-12.39-12.4-12.399zM192.913 298.249c-6.837 0.009-12.399 5.572-12.409 12.409 0 3.305 1.292 6.421 3.631 8.76 2.339 2.348 5.455 3.63 8.769 3.63 6.837 0 12.409-5.563 12.409-12.399 0-4.326-2.239-8.137-5.618-10.35-0.018-0.009-0.045-0.009-0.072-0.027-0.009-0.009-0.018-0.018-0.027-0.018-1.933-1.255-4.218-1.996-6.683-2.005zM318.969 103.43c-6.837 0-12.399 5.563-12.399 12.399 0 3.315 1.291 6.43 3.63 8.769 2.339 2.348 5.455 3.63 8.769 3.63 3.197 0 6.087-1.247 8.281-3.233 0.018-0.018 0.027-0.054 0.054-0.072 0.036-0.036 0.091-0.045 0.135-0.082 2.411-2.267 3.938-5.455 3.938-9.013-0.009-6.837-5.563-12.399-12.409-12.399zM445.034 240.956c-6.837 0.009-12.399 5.572-12.409 12.399 0 3.314 1.291 6.43 3.63 8.769 2.339 2.348 5.455 3.63 8.769 3.63 6.837 0 12.399-5.563 12.399-12.399 0.009-6.827-5.554-12.391-12.39-12.399z" />
<glyph unicode="&#xe60a;" d="M255.147 435.459c-121.369 0-220.106-98.737-220.106-220.097s98.737-220.088 220.097-220.088 220.097 98.737 220.097 220.088c0.009 121.36-98.728 220.097-220.088 220.097zM255.147 13.336c-111.407 0-202.035 90.627-202.035 202.025 0 111.408 90.627 202.034 202.035 202.034s202.035-90.627 202.035-202.034c0-111.399-90.636-202.025-202.035-202.025zM257.197 348.39c-34.788 0-62.197-13.339-86.292-41.976-1.68-2.086-2.601-4.705-2.601-7.37 0-5.68 4.29-9.798 10.187-9.798 3.297 0 6.394 1.536 8.706 4.308 20.293 23.192 42.943 34.463 69.233 34.463 36.142 0 62.369-23.806 62.369-56.616v-0.767c0-34.589-26.651-56.905-71.3-59.696-3.143-0.199-5.87-1.481-7.713-3.603-1.743-2.014-2.583-4.651-2.375-7.45l4.226-49.517c0.416-4.958 3.359-8.155 7.496-8.155h0.768c4.145 0 7.081 3.197 7.487 8.173l2.99 41.507c51.044 6.529 81.478 36.197 81.478 79.528v0.768c0.009 44.144-35.601 76.204-84.658 76.204zM249.511 110.357c-7.993 0-14.025-6.033-14.025-14.026v-10.368c0-7.993 6.033-14.026 14.025-14.026 8.001 0 14.035 6.033 14.035 14.026v10.368c0 7.993-6.033 14.026-14.035 14.026z" />
<glyph unicode="&#xe60b;" d="M347.598 131.002c-84.594 32.702-100.037 46.546-102.765 50.89v9.979c9.564 10.711 17.069 24.546 21.882 40.36 7.37 6.394 11.695 15.796 11.695 25.775 0 6.746-1.959 13.177-5.699 18.785v31.636c0 43.972-27.112 69.187-74.371 69.187-46.583 0-74.398-25.865-74.398-69.187v-31.654c-3.73-5.609-5.68-12.030-5.68-18.767 0-9.97 4.317-19.371 11.677-25.765 4.814-15.832 12.319-29.667 21.892-40.378v-9.971c-2.763-4.371-18.27-18.225-102.765-50.899-7.632-2.944-12.752-10.458-12.752-18.695v-38.644c0-11.045 8.913-20.031 19.869-20.031h284.308c10.954 0 19.868 8.986 19.868 20.031v38.644c0 8.255-5.13 15.777-12.761 18.704zM342.296 73.655c0-1.084-0.813-1.969-1.806-1.969h-284.317c-0.993 0-1.806 0.885-1.806 1.969v38.644c0 0.831 0.487 1.572 1.201 1.851 94.167 36.413 110.396 51.865 113.909 63.137 0.262 0.876 0.406 1.779 0.406 2.692v15.452c0 2.366-0.93 4.633-2.574 6.313-9.284 9.483-16.482 22.704-20.826 38.228-0.56 2.005-1.797 3.748-3.504 4.949-4.173 2.944-6.665 7.83-6.665 13.077 0 4.642 1.996 8.074 3.657 10.133 1.31 1.608 2.023 3.613 2.023 5.69v34.598c0 33.442 19.48 51.125 56.336 51.125 37.37 0 56.309-17.195 56.309-51.125v-34.589c0-2.068 0.714-4.091 2.032-5.699 1.68-2.068 3.666-5.491 3.666-10.133 0-5.247-2.493-10.142-6.683-13.077-1.698-1.201-2.944-2.953-3.504-4.958-4.335-15.524-11.532-28.746-20.816-38.22-1.653-1.689-2.574-3.955-2.574-6.313v-15.452c0-0.921 0.144-1.825 0.416-2.7 3.531-11.28 19.76-26.741 113.918-63.137 0.714-0.271 1.192-1.012 1.192-1.842v-38.644zM469.788 126.757c-21.53 8.317-44.063 12.644-62.161 16.13-12.436 2.393-29.27 5.627-32.918 8.228v9.438c41.877 1.923 59.723 16.058 60.517 16.707 2.312 1.878 3.549 4.786 3.288 7.748-0.244 2.971-1.942 5.635-4.534 7.099-8.913 5.067-17.846 45.147-20.555 78.688 0 24.529-10.051 47.955-27.608 64.356-7.045 8.010-16.428 13.781-27.328 16.969-18.577 6.918-38.924 6.53-56.372-0.442-7.459-2.447-14.079-6.014-19.67-10.566-3.865-3.152-4.443-8.841-1.3-12.707 3.161-3.857 8.841-4.471 12.707-1.301 3.875 3.161 8.553 5.654 14.423 7.604 14.26 5.663 28.837 6.060 44.514 0.28 8.291-2.447 14.911-6.493 19.688-12.029 0.226-0.253 0.469-0.505 0.714-0.731 14.098-13.014 22.171-31.763 22.199-52.155 1.255-15.615 5.988-61.141 19.796-83.321-8.86-3.693-24.827-8.291-49.536-8.363-4.976-0.018-9.004-4.055-9.004-9.031v-20.582c0-0.912 0.144-1.815 0.406-2.692 3.947-12.635 21.142-15.94 47.161-20.934 17.403-3.351 39.041-7.505 59.063-15.245 0.416-0.163 0.704-0.623 0.704-1.129v-35.907c0-0.641-0.478-1.192-1.038-1.192h-76.8c-4.994 0-9.031-4.037-9.031-9.031s4.037-9.031 9.031-9.031h76.8c10.531 0 19.101 8.634 19.101 19.255v35.908c0.009 7.921-4.913 15.145-12.255 17.981z" />
<glyph unicode="&#xe60c;" d="M75.87 128.13c4.994 0 9.031 4.037 9.031 9.031v206.587c0 2.547 2.077 4.633 4.633 4.633h333.744c2.547 0 4.624-2.077 4.624-4.633v-206.587c0-4.994 4.037-9.031 9.031-9.031s9.031 4.037 9.031 9.031v206.587c0 12.517-10.178 22.695-22.686 22.695h-333.744c-12.517 0-22.695-10.178-22.695-22.695v-206.587c0-4.994 4.037-9.031 9.031-9.031zM472.697 106.537h-192.986c-4.994 0-9.031-4.037-9.031-9.031v-4.849h-28.556v4.849c0 4.994-4.037 9.031-9.031 9.031h-192.994c-4.994 0-9.031-4.037-9.031-9.031v-27.401c0-13.276 10.801-24.077 24.077-24.077h402.498c13.284 0 24.086 10.801 24.086 24.077v27.401c0 4.994-4.037 9.031-9.031 9.031zM463.666 70.106c0-3.315-2.7-6.014-6.024-6.014h-402.498c-3.315 0-6.014 2.7-6.014 6.014v18.37h175.249c1.554-7.902 8.535-13.881 16.897-13.881h30.263c8.354 0 15.335 5.978 16.888 13.881h175.239v-18.37zM187.512 202.457c-5.446-2.132-8.95-7.297-8.95-13.149v-17.846c0-7.776 6.294-14.106 14.043-14.106h131.231c7.731 0 14.034 6.331 14.034 14.106v17.846c0 5.798-3.613 11.090-8.995 13.168-32.268 12.472-41.661 18.64-44.325 20.925v0.84c4.046 4.94 7.279 10.973 9.491 17.746 3.811 3.811 6.005 9.049 6.005 14.576 0 3.504-0.921 6.963-2.628 10.016v13.257c0 23.038-14.649 36.793-39.195 36.793-24.185 0-39.204-14.107-39.204-36.793v-13.257c-1.707-3.061-2.628-6.521-2.628-10.016 0-5.518 2.195-10.756 5.996-14.567 2.221-6.782 5.455-12.815 9.5-17.755v-0.831c-2.673-2.294-12.075-8.462-44.379-20.952zM247.371 233.993c-3.712 3.802-6.62 9.175-8.408 15.56-0.56 2.005-1.797 3.748-3.504 4.949-0.235 0.172-1.012 0.822-1.012 2.068 0 0.713 0.325 1.274 0.596 1.607 1.319 1.607 2.032 3.621 2.032 5.698v15.976c0 12.608 6.918 18.731 21.142 18.731 14.613 0 21.133-5.78 21.133-18.731v-15.976c0-2.068 0.714-4.091 2.032-5.698 0.271-0.334 0.596-0.894 0.596-1.607 0-1.256-0.776-1.897-1.012-2.068-1.707-1.201-2.953-2.953-3.513-4.967-1.779-6.367-4.687-11.74-8.399-15.542-1.652-1.689-2.574-3.956-2.574-6.313v-7.135c0-0.921 0.144-1.825 0.416-2.7 1.987-6.349 7.577-13.529 52.904-31.23v-11.199h-123.184v11.199c45.345 17.719 50.935 24.899 52.913 31.238 0.262 0.876 0.406 1.779 0.406 2.692v7.135c0.009 2.366-0.912 4.633-2.565 6.313z" />
<glyph unicode="&#xe60d;" d="M331.478 244.947c-2.159 0-4.317-0.082-6.476-0.126v132.559c0 39.7-73.938 61.113-143.504 61.113-69.558 0-143.486-21.412-143.486-61.113v-257.278c0-39.7 73.928-61.123 143.486-61.123 2.159 0 4.326 0.082 6.494 0.127v-5.373c0-39.7 73.928-61.113 143.486-61.113 69.567 0 143.504 21.413 143.504 61.113v130.111c0 39.692-73.938 61.105-143.504 61.105zM206.054 53.741v32.828c3.513-2.664 7.487-5.147 11.821-7.469 4.75-2.547 9.853-4.931 15.425-7.063 5.518-2.113 11.46-3.964 17.629-5.663 24.222-6.665 52.696-10.16 80.549-10.16 48.623 0 99.279 10.494 125.442 30.353v-32.828c0-20.32-53.644-43.051-125.442-43.051-71.788 0.009-125.424 22.731-125.424 43.051zM306.94 377.38c0-1.779-0.551-3.586-1.354-5.392-1.354-3.034-3.757-6.069-7.198-9.031-3.63-3.134-8.363-6.159-14.070-9.031-22.252-11.171-59.126-19.607-102.819-19.607-43.684 0-80.558 8.435-102.801 19.607-5.698 2.863-10.431 5.897-14.061 9.031-3.441 2.962-5.843 5.996-7.198 9.031-0.804 1.806-1.355 3.603-1.355 5.392 0 20.32 53.636 43.051 125.424 43.051 71.788 0 125.433-22.732 125.433-43.051zM456.92 117.338c0-0.822-0.226-1.652-0.397-2.474-0.632-3.007-2.248-6.042-5.012-9.031-2.872-3.098-6.954-6.123-11.876-9.031-21.358-12.589-60.734-22.514-108.147-22.514-16.202 0-31.401 1.21-45.354 3.233-5.997 0.876-11.776 1.878-17.25 3.053-6.187 1.318-12.029 2.808-17.457 4.452-11.271 3.414-20.709 7.442-28.077 11.786-4.922 2.908-9.004 5.933-11.876 9.031-2.773 2.99-4.389 6.024-5.012 9.031-0.172 0.831-0.398 1.661-0.398 2.474v35.727c4.714-3.577 10.205-6.854 16.364-9.817 5.040-2.43 10.54-4.615 16.364-6.62 5.726-1.969 11.714-3.775 18.017-5.329 15.587-3.847 32.702-6.421 50.132-7.668 3.007-0.216 6.014-0.38 9.031-0.515 3.017-0.135 6.024-0.207 9.031-0.262 2.159-0.045 4.326-0.127 6.476-0.127 48.623 0 99.279 10.494 125.442 30.353v-35.754zM61.492 172.193c-2.764 2.99-4.38 6.024-5.013 9.031-0.172 0.822-0.398 1.652-0.398 2.474v32.819c26.154-19.851 76.809-30.344 125.424-30.344 2.258 0 4.524 0.091 6.782 0.127-0.063-0.831-0.289-1.616-0.289-2.457v-43.070c-2.167-0.045-4.29-0.127-6.494-0.127-47.404 0-86.78 9.925-108.129 22.514-4.94 2.899-9.013 5.925-11.885 9.031zM181.498 316.266c48.624 0 99.279 10.494 125.442 30.354v-35.736c0-0.822-0.226-1.653-0.397-2.475-0.632-3.007-2.248-6.042-5.012-9.031-2.872-3.098-6.954-6.132-11.885-9.031-21.358-12.581-60.734-22.505-108.138-22.505-47.395 0-86.762 9.925-108.121 22.505-4.931 2.908-9.013 5.933-11.885 9.031-2.773 2.989-4.38 6.024-5.013 9.031-0.181 0.813-0.407 1.644-0.407 2.466v35.736c26.145-19.851 76.801-30.345 125.415-30.345zM181.498 249.761c48.624 0 99.279 10.494 125.442 30.345v-32.819c0-0.822-0.226-1.653-0.397-2.475-0.054-0.262-0.054-0.533-0.127-0.794-18.135-1.327-35.907-4.091-51.974-8.237-9.7-2.501-18.695-5.536-26.822-9.031-13.944-5.996-25.188-13.384-32.052-22.208-4.606-0.19-9.284-0.307-14.061-0.307-47.404 0-86.78 9.925-108.129 22.514-4.931 2.908-9.004 5.934-11.876 9.031-2.764 2.989-4.38 6.024-5.013 9.031-0.172 0.831-0.398 1.661-0.398 2.475v32.819c26.136-19.851 76.791-30.345 125.406-30.345zM455.565 178.452c-1.346-3.034-3.757-6.069-7.198-9.031-3.63-3.134-8.363-6.168-14.070-9.031-22.252-11.171-59.127-19.606-102.819-19.606-2.195 0-4.317 0.091-6.476 0.127-3.043 0.063-6.069 0.127-9.031 0.271-3.043 0.144-6.069 0.316-9.031 0.533-5.473 0.406-10.783 0.957-15.94 1.616-5.843 0.75-11.452 1.652-16.834 2.682-6.141 1.174-11.948 2.519-17.421 4.010-10.9 2.971-20.365 6.493-28.069 10.358-1.806 0.903-3.477 1.834-5.084 2.772-3.468 2.032-6.494 4.118-8.977 6.259-1.065 0.921-2.113 1.842-2.989 2.772-1.941 2.068-3.269 4.163-4.2 6.259-0.416 0.93-0.732 1.851-0.93 2.772-0.19 0.876-0.424 1.752-0.424 2.619 0 1.084 0.226 2.176 0.533 3.269 0.876 3.206 3.061 6.421 6.331 9.582 4.037 3.911 9.798 7.695 17.032 11.207 13.294 6.457 31.465 11.939 53.094 15.326 6.611 1.038 13.538 1.869 20.726 2.475 1.057 0.090 2.104 0.18 3.17 0.253 2.962 0.226 15.524 0.75 18.062 0.804 2.159 0.045 4.281 0.126 6.476 0.126 71.797 0 125.442-22.732 125.442-43.051-0.018-1.77-0.578-3.567-1.373-5.373zM56.083 147.71v5.211c26.154-19.851 76.809-30.344 125.424-30.344 2.159 0 4.326 0.082 6.494 0.127v-45.517c-2.167-0.045-4.29-0.127-6.494-0.127-71.788 0-125.424 22.731-125.424 43.060v27.59z" />
<glyph unicode="&#xe60e;" d="M452.539 339.151h-101.094l-65.105 54.060c1.77 4.019 2.781 8.435 2.781 13.095 0 18.035-14.666 32.701-32.692 32.701s-32.692-14.675-32.692-32.701c0-4.66 1.012-9.077 2.781-13.095l-65.105-54.060h-101.085c-4.985 0-9.031-4.046-9.031-9.031v-330.068c0-4.985 4.046-9.031 9.031-9.031h392.212c4.985 0 9.031 4.046 9.031 9.031v330.068c0 4.985-4.046 9.031-9.031 9.031zM256.429 420.945c8.065 0 14.63-6.565 14.63-14.639s-6.565-14.63-14.63-14.63c-8.074 0-14.631 6.565-14.631 14.63 0 8.074 6.566 14.639 14.631 14.639zM238.042 379.303c5.247-3.585 11.569-5.689 18.388-5.689s13.14 2.104 18.387 5.689l48.353-40.143h-133.48l48.352 40.143zM443.508 9.082h-374.149v246.305h374.149v-246.305zM443.508 273.45h-374.149v47.639h374.149v-47.639zM299.904 199.25h4.841c4.985 0 9.031 4.046 9.031 9.031v4.822c0 4.985-4.046 9.031-9.031 9.031h-4.841c-4.985 0-9.031-4.046-9.031-9.031v-4.822c0-4.985 4.037-9.031 9.031-9.031zM347.3 199.25h4.841c4.985 0 9.031 4.046 9.031 9.031v4.822c0 4.985-4.046 9.031-9.031 9.031h-4.841c-4.985 0-9.031-4.046-9.031-9.031v-4.822c0-4.985 4.046-9.031 9.031-9.031zM394.677 199.25h4.841c4.985 0 9.031 4.046 9.031 9.031v4.822c0 4.985-4.046 9.031-9.031 9.031h-4.841c-4.985 0-9.031-4.046-9.031-9.031v-4.822c0-4.985 4.046-9.031 9.031-9.031zM110.369 146.292h4.841c4.985 0 9.031 4.046 9.031 9.031v4.813c0 4.985-4.046 9.031-9.031 9.031h-4.841c-4.985 0-9.031-4.046-9.031-9.031v-4.813c0-4.985 4.046-9.031 9.031-9.031zM157.755 146.292h4.84c4.985 0 9.031 4.046 9.031 9.031v4.813c0 4.985-4.046 9.031-9.031 9.031h-4.84c-4.985 0-9.031-4.046-9.031-9.031v-4.813c0-4.985 4.046-9.031 9.031-9.031zM205.142 146.292h4.822c4.985 0 9.031 4.046 9.031 9.031v4.813c0 4.985-4.046 9.031-9.031 9.031h-4.822c-4.985 0-9.031-4.046-9.031-9.031v-4.813c0-4.985 4.046-9.031 9.031-9.031zM252.528 146.292h4.84c4.985 0 9.031 4.046 9.031 9.031v4.813c0 4.985-4.046 9.031-9.031 9.031h-4.84c-4.985 0-9.031-4.046-9.031-9.031v-4.813c0-4.985 4.046-9.031 9.031-9.031zM299.904 146.292h4.841c4.985 0 9.031 4.046 9.031 9.031v4.813c0 4.985-4.046 9.031-9.031 9.031h-4.841c-4.985 0-9.031-4.046-9.031-9.031v-4.813c0-4.985 4.037-9.031 9.031-9.031zM347.3 146.292h4.841c4.985 0 9.031 4.046 9.031 9.031v4.813c0 4.985-4.046 9.031-9.031 9.031h-4.841c-4.985 0-9.031-4.046-9.031-9.031v-4.813c0-4.985 4.046-9.031 9.031-9.031zM394.677 146.292h4.841c4.985 0 9.031 4.046 9.031 9.031v4.813c0 4.985-4.046 9.031-9.031 9.031h-4.841c-4.985 0-9.031-4.046-9.031-9.031v-4.813c0-4.985 4.046-9.031 9.031-9.031zM110.369 93.334h4.841c4.985 0 9.031 4.046 9.031 9.031v4.822c0 4.985-4.046 9.031-9.031 9.031h-4.841c-4.985 0-9.031-4.046-9.031-9.031v-4.822c0-4.985 4.046-9.031 9.031-9.031zM157.755 93.334h4.84c4.985 0 9.031 4.046 9.031 9.031v4.822c0 4.985-4.046 9.031-9.031 9.031h-4.84c-4.985 0-9.031-4.046-9.031-9.031v-4.822c0-4.985 4.046-9.031 9.031-9.031zM205.142 93.334h4.822c4.985 0 9.031 4.046 9.031 9.031v4.822c0 4.985-4.046 9.031-9.031 9.031h-4.822c-4.985 0-9.031-4.046-9.031-9.031v-4.822c0-4.985 4.046-9.031 9.031-9.031zM252.528 93.334h4.84c4.985 0 9.031 4.046 9.031 9.031v4.822c0 4.985-4.046 9.031-9.031 9.031h-4.84c-4.985 0-9.031-4.046-9.031-9.031v-4.822c0-4.985 4.046-9.031 9.031-9.031zM299.904 93.334h4.841c4.985 0 9.031 4.046 9.031 9.031v4.822c0 4.985-4.046 9.031-9.031 9.031h-4.841c-4.985 0-9.031-4.046-9.031-9.031v-4.822c0-4.985 4.037-9.031 9.031-9.031zM347.3 93.334h4.841c4.985 0 9.031 4.046 9.031 9.031v4.822c0 4.985-4.046 9.031-9.031 9.031h-4.841c-4.985 0-9.031-4.046-9.031-9.031v-4.822c0-4.985 4.046-9.031 9.031-9.031zM394.677 93.334h4.841c4.985 0 9.031 4.046 9.031 9.031v4.822c0 4.985-4.046 9.031-9.031 9.031h-4.841c-4.985 0-9.031-4.046-9.031-9.031v-4.822c0-4.985 4.046-9.031 9.031-9.031zM110.369 40.375h4.841c4.985 0 9.031 4.046 9.031 9.031v4.813c0 4.985-4.046 9.031-9.031 9.031h-4.841c-4.985 0-9.031-4.046-9.031-9.031v-4.813c0-4.985 4.046-9.031 9.031-9.031zM157.755 40.375h4.84c4.985 0 9.031 4.046 9.031 9.031v4.813c0 4.985-4.046 9.031-9.031 9.031h-4.84c-4.985 0-9.031-4.046-9.031-9.031v-4.813c0-4.985 4.046-9.031 9.031-9.031zM205.142 40.375h4.822c4.985 0 9.031 4.046 9.031 9.031v4.813c0 4.985-4.046 9.031-9.031 9.031h-4.822c-4.985 0-9.031-4.046-9.031-9.031v-4.813c0-4.985 4.046-9.031 9.031-9.031zM252.528 40.375h4.84c4.985 0 9.031 4.046 9.031 9.031v4.813c0 4.985-4.046 9.031-9.031 9.031h-4.84c-4.985 0-9.031-4.046-9.031-9.031v-4.813c0-4.985 4.046-9.031 9.031-9.031zM299.904 40.375h4.841c4.985 0 9.031 4.046 9.031 9.031v4.813c0 4.985-4.046 9.031-9.031 9.031h-4.841c-4.985 0-9.031-4.046-9.031-9.031v-4.813c0-4.985 4.037-9.031 9.031-9.031z" />
<glyph unicode="&#xe60f;" d="M418.601 368.168c-0.099 0.858-0.244 1.661-0.569 2.438-0.18 0.442-0.416 0.813-0.668 1.219-0.442 0.713-0.949 1.327-1.563 1.896-0.199 0.19-0.298 0.461-0.515 0.623-0.171 0.126-0.389 0.144-0.56 0.253-0.668 0.442-1.4 0.74-2.185 0.993-0.488 0.163-0.93 0.352-1.436 0.433-0.163 0.027-0.298 0.127-0.469 0.136-31.789 2.926-53.238 11.776-62.026 25.576-7.776 12.201-3.432 24.718-3.26 25.179 1.201 3.179 0.524 6.755-1.761 9.266-2.267 2.52-5.789 3.549-9.040 2.646l-226.78-61.33c-1.309-0.352-2.43-1.012-3.404-1.834-3.666-1.147-6.376-4.452-6.376-8.498v-301.783c0-0.009 0-0.009 0-0.018-0.009-2.863 0.921-63.615 83.709-70.316 0.244-0.018 0.496-0.027 0.74-0.027 0.1 0 0.18 0.045 0.271 0.054 0.108 0 0.208-0.054 0.316-0.054 0.786 0 1.581 0.099 2.357 0.316l226.78 61.33c3.947 1.065 6.674 4.642 6.674 8.715v301.792c0 0.352-0.199 0.65-0.235 0.993zM182.338 315.020c-15.778 1.427-27.852 4.822-37.010 9.23l198.621 55.885c6.918-5.861 15.723-10.62 26.407-14.26l-188.018-50.854zM331.577 395.406l-204.636-57.573c-8.489 9.618-10.395 19.3-10.783 23.237l209.801 56.733c-0.009-6.493 1.391-14.395 5.618-22.397zM116.031 65.211c0 0.036-0.018 0.054-0.018 0.091 0 0.027 0.018 0.054 0.018 0.082v257.901c0.207-0.216 0.406-0.425 0.614-0.641 0.65-0.976 1.481-1.761 2.43-2.402 11.217-10.142 28.584-18.893 54.909-22.352v-283.703c-57.555 8.615-57.98 49.156-57.953 51.026zM400.773 72.3l-208.718-56.445v283.079l208.718 56.445v-283.079z" />
<glyph unicode="&#xe610;" d="M250.161 110.457h-137.706c-4.94 0-8.941-4.001-8.941-8.941s4.001-8.941 8.941-8.941h137.706c4.94 0 8.941 4.001 8.941 8.941s-4.010 8.941-8.941 8.941zM250.161 173.042h-137.706c-4.94 0-8.941-4.001-8.941-8.941s4.001-8.941 8.941-8.941h137.706c4.94 0 8.941 4.001 8.941 8.941s-4.010 8.941-8.941 8.941zM250.161 235.627h-137.706c-4.94 0-8.941-4.001-8.941-8.941 0-4.94 4.001-8.941 8.941-8.941h137.706c4.94 0 8.941 4.001 8.941 8.941 0 4.94-4.010 8.941-8.941 8.941zM112.455 280.332h50.583c4.94 0 8.941 4.001 8.941 8.941 0 4.94-4.001 8.941-8.941 8.941h-50.583c-4.94 0-8.941-4.001-8.941-8.941 0-4.94 4.010-8.941 8.941-8.941zM266.869 432.596c-4.471 4.425-10.413 6.854-16.708 6.854 0 0 0 0-0.009 0h-192.994c-13.122 0-23.797-10.675-23.797-23.797v-397.612c0-13.131 10.675-23.806 23.797-23.806h255.291c13.131 0 23.815 10.684 23.815 23.806v336.2c0 6.322-2.583 12.499-7.099 16.952l-62.296 61.402zM311.825 363.183h-52.651l-0.054 51.947 52.706-51.947zM312.449 12.108h-255.291c-3.27 0-5.916 2.655-5.916 5.925v397.621c0 3.269 2.655 5.925 5.916 5.925h184.072l0.072-67.336c0-4.931 4.010-8.932 8.941-8.932h68.148v-327.26c0-3.288-2.664-5.942-5.942-5.942zM474.801 431.765c-3.26 4.822-8.155 7.632-13.546 7.704l-62.269-0.018c-5.301-0.009-10.241-2.817-13.546-7.73-2.637-3.92-4.073-8.932-4.064-14.098v-289.050c0-2.547 0.352-5.067 1.048-7.487l31.121-108.473c2.474-8.715 8.977-14.341 16.581-14.341l0.009 6.005c0 0 0 0 0.009 0v-6.005c5.292 0 10.232 2.808 13.519 7.676 1.327 1.959 2.366 4.2 3.062 6.638l31.149 108.554c0.687 2.457 1.029 4.994 1.002 7.442v287.442l0.009 1.661c-0.027 5.211-1.472 10.214-4.082 14.079zM400.204 421.569l59.885 0.009c0.433-0.74 0.903-2.149 0.912-3.883l-0.009-280.19h-61.736l0.009 267.23v12.914c-0.009 1.644 0.38 2.953 0.939 3.92zM436.825 42.949h-13.393l-22 76.683h57.392l-22-76.683z" />
<glyph unicode="&#xe611;" d="M434.983 357.322c-5.382 4.055-12.671 5.418-19.191 3.558-0.091-0.027-9.591-2.628-24.050-2.628-31.645 0-77.559 11.803-116.565 67.941-3.947 5.672-10.656 9.049-17.945 9.049-7.306 0-14.007-3.377-17.945-9.049-39.014-56.155-84.928-67.941-116.573-67.941-14.395 0-23.888 2.574-23.888 2.574-6.502 1.959-13.817 0.641-19.317-3.441-5.491-4.109-8.778-10.656-8.778-17.502v-120.709c0-174.173 178.888-226.12 180.749-226.654 1.861-0.515 3.802-0.767 5.744-0.767s3.875 0.253 5.789 0.776c1.806 0.515 180.712 52.11 180.712 226.644v120.709c-0.018 6.827-3.296 13.348-8.742 17.439zM425.644 219.164c0-160.564-165.793-208.754-167.428-209.214-0.641-0.19-1.409-0.171-1.95-0.018-1.68 0.469-167.472 48.786-167.472 209.232v120.719c0 1.219 0.56 2.33 1.499 3.026 0.668 0.505 1.49 0.776 2.303 0.776 0.361 0 0.713-0.063 0.767-0.072 2.041-0.668 13.637-3.423 29.342-3.423 35.953 0 87.936 13.131 131.421 75.708 1.319 1.923 4.904 1.897 6.213 0 43.466-62.577 95.45-75.708 131.411-75.708 17.683 0 28.99 3.315 28.99 3.315 1.156 0.334 2.43 0.117 3.387-0.605 0.957-0.714 1.526-1.842 1.526-3.017l-0.009-120.719zM372.894 306.45c0 0-7.406 0.18-14.387-1.788-4.19-0.921-8.344-2.791-12.986-4.994-5.834-2.619-22.298-11.316-34.435-19.977-4.163 0.695-8.67 1.038-13.519 1.038-36.043 0-83.881-13.519-123.401-42.292-41.245-30.155-57.194-59.28-57.194-79.383 0-19.055 15.253-26.334 36.739-26.334 40.207 0 77.993 36.396 109.881 79.726 18.044 23.905 30.164 40.549 42.988 53.383 2.43 2.773 5.202 5.202 7.974 7.966 7.974-4.85 10.404-13.519 7.632-24.609-3.82-15.94-19.408-29.46-34.318-31.545l0.144-2.998c6.584 0.695 19.625-5.32 18.577-22.307-1.382-28.421-27.392-53.039-49.915-53.039-6.24 0-14.215 2.43-13.167 8.327 0.696 3.811 4.868 5.536 8.317 6.927 4.163 1.734 9.013 4.507 9.013 10.060 0 5.536-4.85 8.317-10.747 8.317-10.395 0-21.494-8.317-21.494-19.399 0-13.185 14.911-16.997 28.078-16.997 4.154 0 8.255 0.289 12.255 0.849-5.599-3.739-9.673-9.673-9.673-16.626 0-14.151 15.994-18.252 30.137-18.261h0.054c49.978 0.027 94.998 29.216 96.967 70.786 0.985 20.302-13.357 37.632-43.566 42.582l0.135 0.099c23.77 3.477 58.296 20.194 62.739 47.423 3.938 20.284-9.862 43.178-32.828 43.070zM306.57 276.565c-2.772-2.077-5.889-4.163-8.661-6.584-16.283-13.167-41.597-37.786-64.139-67.245-26.687-35.014-48.533-66.903-80.413-66.903-15.254 0-22.541 9.365-22.541 22.876 0 18.035 11.442 48.181 49.228 77.306 36.738 28.087 82.165 41.597 115.445 41.597 4.146-0.009 7.957-0.352 11.081-1.048zM386.784 262.161c-6.548-23.878-21.747-35.203-48.569-43.385-6.042-1.608-7.035-1.851-7.035-1.851 0.19-2.204 0.19-3.026 0.19-3.026 14.278-1.337 30.778-7.459 29.279-31.726-1.87-38.716-35.727-72.447-66.776-75.491l0.036 0.027c-6.71 0-19.76 1.346-18.631 7.704 0.74 4.1 5.211 5.952 8.941 7.45 4.471 1.851 9.69 4.849 9.69 10.801 0 4.949-3.613 7.848-8.471 8.688 21.909 7.704 38.175 24.022 39.159 44.731 0.687 14.206-9.212 26.632-30.353 30.11l-0.154 0.054c16.644 2.43 40.902 13.863 44.026 32.928 2.772 14.215-6.24 23.571-19.055 28.421 9.69 7.974 22.271 16.184 30.245 19.642 4.326 1.825 8.517 3.206 10.666 3.73 2.89 0.704 5.834 0.822 7.532 0.74 3.414-0.38 6.322-1.301 9.257-3.008 11.93-6.195 14.034-23.291 10.024-36.54z" />
<glyph unicode="&#xe612;" d="M410.048 368.719c0 0-10.476 0.253-20.338-2.537-5.916-1.292-11.795-3.938-18.36-7.063-8.236-3.694-31.51-15.994-48.668-28.231-5.879 0.976-12.255 1.472-19.101 1.472-50.953 0-118.551-19.101-174.409-59.768-58.296-42.627-80.829-83.781-80.829-112.193 0-26.94 21.557-37.226 51.929-37.226 56.824 0 110.224 51.441 155.289 112.681 25.486 33.803 42.627 57.32 60.752 75.446 3.423 3.929 7.342 7.351 11.262 11.271 11.271-6.854 14.702-19.101 10.783-34.788-5.401-22.532-27.437-41.633-48.497-44.577l0.19-4.236c9.293 0.976 27.735-7.523 26.253-31.527-1.959-40.171-38.707-74.958-70.542-74.958-8.823 0-20.094 3.432-18.622 11.767 0.984 5.392 6.873 7.83 11.758 9.789 5.888 2.447 12.743 6.367 12.743 14.215 0 7.821-6.855 11.75-15.191 11.75-14.694 0-30.371-11.75-30.371-27.418 0-18.622 21.070-24.014 39.691-24.014 5.861 0 11.659 0.416 17.322 1.201-7.921-5.292-13.682-13.673-13.682-23.499 0-20.004 22.587-25.793 42.581-25.811h0.091c70.623 0.036 134.238 41.29 137.038 100.037 1.4 28.692-18.884 53.184-61.565 60.174l0.19 0.144c33.587 4.904 82.382 28.538 88.668 67.020 5.599 28.673-13.908 61.032-46.365 60.878zM316.314 326.481c-3.92-2.944-8.327-5.879-12.237-9.302-23.020-18.622-58.792-53.401-90.636-95.034-37.723-49.481-68.591-94.555-113.656-94.555-21.557 0-31.844 13.231-31.844 32.332 0 25.476 16.174 68.085 69.566 109.24 51.929 39.691 116.113 58.792 163.147 58.792 5.852 0 11.252-0.487 15.66-1.472zM429.673 306.134c-9.239-33.74-30.733-49.762-68.637-61.321-8.543-2.258-9.952-2.61-9.952-2.61 0.253-3.115 0.253-4.28 0.253-4.28 20.185-1.897 43.503-10.548 41.389-44.84-2.646-54.711-50.502-102.385-94.366-106.685l0.045 0.045c-9.483 0-27.915 1.906-26.334 10.873 1.048 5.798 7.37 8.417 12.635 10.531 6.322 2.619 13.7 6.854 13.7 15.272 0 6.99-5.111 11.099-11.957 12.274 30.968 10.873 53.952 33.948 55.343 63.218 0.966 20.085-13.023 37.642-42.906 42.554l-0.207 0.072c23.517 3.432 57.808 19.597 62.224 46.537 3.92 20.094-8.832 33.315-26.94 40.171 13.709 11.271 31.483 22.867 42.744 27.762 6.105 2.583 12.038 4.534 15.073 5.265 4.082 0.993 8.236 1.165 10.639 1.048 4.832-0.524 8.941-1.834 13.086-4.245 16.861-8.769 19.841-32.918 14.17-51.64z" />
<glyph unicode="&#xe613;" d="M18.838 456.318l239.95-239.95 5.18 5.188-239.95 239.942zM253.776 221.557l-239.942-239.95 5.181-5.18 239.942 239.942z" horiz-adv-x="274" />
<glyph unicode="&#xe614;" d="M258.964 456.318l-239.95-239.95-5.181 5.188 239.95 239.942zM24.026 221.557l239.942-239.95-5.18-5.18-239.942 239.942z" horiz-adv-x="274" />
<glyph unicode="&#xe615;" d="M412.767 371.572c-41.796 41.805-97.382 64.834-156.5 64.834s-114.695-23.029-156.5-64.834c-41.796-41.805-64.825-97.373-64.825-156.491 0-59.127 23.020-114.695 64.825-156.5 41.805-41.805 97.382-64.834 156.5-64.834s114.695 23.029 156.5 64.834c41.805 41.805 64.825 97.374 64.825 156.5 0 59.108-23.020 114.686-64.825 156.491zM458.635 196.74c-57.32-5.202-113.178 13.628-155.506 52.425l102.937 102.936c34.409-37.551 53.464-85.768 53.464-137.029 0-6.159-0.352-12.264-0.894-18.333zM393.296 364.871l-102.936-102.936c-38.798 42.338-57.637 98.177-52.425 155.507 6.060 0.542 12.165 0.894 18.333 0.894 51.26 0 99.478-19.046 137.029-53.464zM112.537 358.803c29.586 29.586 66.713 48.795 107.019 56.119-4.435-61.222 16.364-120.601 58.034-165.748l-55.424-55.415c-45.138 41.678-104.499 62.495-165.738 58.043 7.324 40.297 26.534 77.415 56.11 107zM53.898 233.406c57.339 5.193 113.177-13.628 155.498-52.425l-102.936-102.937c-34.409 37.551-53.455 85.769-53.455 137.029 0 6.168 0.352 12.264 0.894 18.333zM119.228 65.274l102.936 102.937c38.806-42.329 57.636-98.177 52.426-155.506-6.069-0.542-12.165-0.894-18.333-0.894-51.251 0-99.469 19.055-137.029 53.464zM399.997 71.343c-29.586-29.577-66.704-48.795-107.010-56.11 4.435 61.231-16.365 120.601-58.043 165.748l55.397 55.397c41.137-37.994 94.113-58.63 149.546-58.63 5.392 0 10.801 0.253 16.229 0.65-7.324-40.324-26.534-77.459-56.119-107.055z" />
<glyph unicode="&#xe616;" d="M226.68 384.903c-101.763 0-184.542-82.788-184.542-184.56 0-101.762 82.779-184.542 184.542-184.542s184.55 82.779 184.55 184.542c0 101.772-82.788 184.56-184.55 184.56zM226.68 33.873c-91.792 0-166.479 74.687-166.479 166.479 0 91.801 74.687 166.498 166.479 166.498 91.801 0 166.488-74.696 166.488-166.498 0-91.792-74.687-166.479-166.488-166.479zM234.267 261.285c-4.588 0.542-9.447 0.668-13.989 0.19-4.624-0.488-9.347-1.572-14.043-3.233-24.519-8.679-40.992-31.943-40.992-57.88 0-1.671 0.118-3.305 0.244-4.958 2.429-30.155 26.064-53.798 56.155-56.228 1.671-0.154 3.341-0.244 5.040-0.244 3.938 0 7.947 0.397 11.948 1.183 4.48 0.894 8.869 2.303 13.050 4.182 22.135 9.916 36.44 31.916 36.44 56.065 0 2.303-0.144 4.551-0.397 6.737-3.079 28.322-25.025 50.601-53.455 54.187zM244.291 160.769c-2.962-1.327-6.051-2.33-9.166-2.944-4.028-0.786-7.893-1.002-11.966-0.65-20.925 1.689-37.985 18.74-39.665 39.683-0.1 1.165-0.19 2.33-0.19 3.504 0 18.297 11.641 34.725 28.963 40.856 3.351 1.183 6.674 1.959 9.916 2.294 1.472 0.162 2.981 0.244 4.498 0.244 1.879 0 3.712-0.198 5.436-0.398 19.995-2.519 35.483-18.243 37.669-38.283 0.18-1.563 0.28-3.125 0.28-4.714 0-17.050-10.106-32.584-25.775-39.593zM226.68 225.666c-13.962 0-25.323-11.361-25.323-25.323s11.361-25.323 25.323-25.323c13.971 0 25.332 11.361 25.332 25.323 0 13.971-11.361 25.323-25.332 25.323zM226.68 193.091c-4.001 0-7.261 3.251-7.261 7.261s3.251 7.261 7.261 7.261 7.27-3.251 7.27-7.261-3.26-7.261-7.27-7.261zM464.93 422.409c-4.994 0-9.031-4.037-9.031-9.031v-254.226l-44.135-86.618c-7.966 2.43-17.349-0.976-21.503-8.327l-15.434-27.175c-4.976-8.76-1.887-19.94 6.873-24.908l12.327-6.999c2.745-1.563 5.861-2.393 9.013-2.393 6.565 0 12.652 3.549 15.913 9.248l15.425 27.183c4.931 8.697 1.906 19.769-6.71 24.8l45.309 88.911c0.65 1.274 0.985 2.673 0.985 4.1v256.402c0 4.994-4.037 9.031-9.031 9.031zM403.248 20.913c-0.063-0.099-0.154-0.118-0.199-0.118l-12.508 7.324 15.714 27.265 12.409-7.297-15.416-27.175z" />
<glyph unicode="&#xe617;" d="M419.197 105.589c-10.422 0-20.13-3.026-28.385-8.173l-127.284 143.829v85.805c25.404 4.317 44.831 26.434 44.831 53.040 0 29.703-24.167 53.87-53.862 53.87-29.703 0-53.87-24.167-53.87-53.87 0-26.615 19.426-48.723 44.84-53.040v-85.922l-121.225-143.097c-8.037 4.777-17.385 7.568-27.392 7.568-29.703 0-53.87-24.167-53.87-53.87 0-29.694 24.167-53.861 53.87-53.861 29.694 0 53.862 24.167 53.862 53.861 0 13.185-4.778 25.269-12.679 34.644l107.434 126.824v-108.418c-25.413-4.317-44.839-26.434-44.839-53.048 0-29.694 24.167-53.861 53.87-53.861 29.694 0 53.861 24.167 53.861 53.861 0 26.623-19.426 48.732-44.831 53.048v109.213l113.728-128.522c-7.45-9.239-11.939-20.97-11.939-33.74 0-29.694 24.167-53.861 53.87-53.861 29.694 0 53.861 24.167 53.861 53.861 0 29.704-24.158 53.861-53.853 53.861zM96.85 15.928c-19.751 0-35.809 16.058-35.809 35.8 0 19.751 16.057 35.808 35.809 35.808 19.742 0 35.799-16.058 35.799-35.808 0-19.742-16.058-35.8-35.799-35.8zM290.296 51.728c0-19.742-16.058-35.8-35.799-35.8-19.751 0-35.809 16.058-35.809 35.8 0 19.751 16.058 35.808 35.809 35.808 19.742-0.009 35.799-16.067 35.799-35.808zM254.496 344.298c-19.751 0-35.809 16.058-35.809 35.799 0 19.751 16.058 35.809 35.809 35.809 19.742 0 35.799-16.058 35.799-35.809 0-19.742-16.058-35.799-35.799-35.799zM419.197 15.928c-19.751 0-35.808 16.058-35.808 35.8 0 19.751 16.058 35.808 35.808 35.808 19.742 0 35.8-16.058 35.8-35.808-0.009-19.742-16.067-35.8-35.8-35.8z" />
<glyph unicode="&#xe618;" d="M389.303 260.68l-19.408 1.373-132.523 155.173c-12.418 15.822-25.197 23.851-37.994 23.878l-18.785-0.018c-3.089 0-5.96-1.581-7.613-4.191-1.653-2.601-1.869-5.87-0.56-8.67l80.151-171.194-101.383-7.523-43.484 48.66c-1.707 1.923-4.163 3.017-6.737 3.017h-35.98c-3.315 0-6.367-1.815-7.938-4.733-1.581-2.908-1.436-6.466 0.38-9.23l44.541-68.149-44.677-75.13c-1.661-2.791-1.698-6.25-0.090-9.077 1.599-2.817 4.597-4.57 7.848-4.57l35.934-0.018c2.574 0 5.022 1.093 6.737 3.017l43.476 48.659 101.41-7.541-80.169-172.123c-1.31-2.8-1.093-6.060 0.569-8.661s4.524-4.181 7.613-4.181h18.757c12.806 0 25.585 8.038 37.741 23.58l132.748 155.443 19.995 1.427c5.446 0.731 10.458 1.382 15.027 1.923 4.985 0.596 11.207 1.834 19.010 3.784 8.589 2.132 17.123 6.629 25.36 13.366 9.356 7.659 14.098 16.509 14.089 26.308-0.018 25.992-24.889 41.263-74.046 45.399zM437.827 202.953c-6.15-5.031-12.3-8.336-18.288-9.826-6.972-1.734-12.616-2.872-16.77-3.368-4.642-0.56-9.762-1.21-14.729-1.906l-23.201-1.644c-2.421-0.171-4.66-1.3-6.231-3.143l-135.458-158.613c-8.67-11.090-16.897-16.952-23.761-16.952h-4.588l79.708 171.121c1.255 2.692 1.111 5.825-0.389 8.381-1.508 2.556-4.163 4.217-7.125 4.435l-118.894 8.841c-2.863 0.226-5.536-0.894-7.405-2.99l-43.746-48.966-16.021 0.009 39.448 66.343c1.761 2.962 1.689 6.665-0.198 9.555l-38.49 58.892h15.245l43.755-48.966c1.869-2.095 4.56-3.26 7.405-2.989l118.894 8.833c2.962 0.216 5.627 1.879 7.125 4.444s1.644 5.698 0.38 8.39l-79.69 170.209h4.57c6.863-0.009 15.091-5.87 24.031-17.25l135.214-158.342c1.572-1.843 3.811-2.971 6.223-3.143l23.065-1.635c26.172-2.213 57.375-8.76 57.384-27.41-0.009-1.526 0-6.204-7.459-12.31z" />
<glyph unicode="&#xe619;" d="M411.475 373.171c-41.543 41.534-96.768 64.419-155.498 64.419-58.738 0-113.964-22.876-155.506-64.41-85.76-85.777-85.769-225.308-0.018-311.040 41.534-41.552 96.777-64.428 155.534-64.437 0.009 0 0.009 0 0.009 0 58.739 0 113.963 22.876 155.506 64.419 85.75 85.732 85.732 225.272-0.027 311.049zM398.868 74.748c-38.175-38.166-88.902-59.19-142.863-59.19h-0.009c-53.988 0.009-104.743 21.024-142.908 59.208-78.778 78.779-78.769 206.975 0.018 285.771 38.166 38.156 88.902 59.181 142.872 59.181 53.961 0 104.698-21.024 142.863-59.181 78.796-78.815 78.815-207.011 0.027-285.789zM348.574 283.149l-128.864-137.733-56.345 60.228c-3.387 3.603-9.031 3.793-12.635 0.416s-3.793-9.031-0.424-12.635l62.874-67.209c0.072-0.072 0.172-0.099 0.253-0.171 0.072-0.072 0.1-0.171 0.172-0.244 0.524-0.497 1.165-0.767 1.761-1.111 0.334-0.19 0.623-0.469 0.984-0.614 1.075-0.442 2.213-0.687 3.359-0.687 1.147 0 2.276 0.244 3.359 0.687 0.352 0.144 0.641 0.425 0.984 0.614 0.605 0.343 1.238 0.614 1.761 1.111 0.072 0.072 0.1 0.171 0.172 0.244 0.072 0.072 0.18 0.099 0.253 0.171l135.385 144.714c3.368 3.603 3.179 9.257-0.425 12.635-3.594 3.377-9.248 3.179-12.625-0.416z" />
<glyph unicode="&#xe61a;" d="M453.379 214.062c-12.761 12.77-29.731 19.796-47.784 19.796s-35.022-7.026-47.793-19.796c-17.096-17.087-23.635-42.193-17.421-65.349l-115.038-115.038c-2.601-2.601-3.369-6.521-1.933-9.907l8.633-20.383c1.418-3.351 4.705-5.509 8.317-5.509 0.108 0 0.216 0 0.334 0.009l33.776 1.247c3.964 0.144 7.37 2.863 8.399 6.701l6.214 23.399 27.464 5.356c3.784 0.74 6.674 3.793 7.216 7.613l4.786 34.147 24.529-0.587c2.836-0.144 4.858 0.903 6.601 2.646l24.005 24.005c7.045-2.411 14.54-3.658 21.99-3.658 18.017 0 34.959 7.008 47.693 19.751 26.362 26.334 26.362 69.205 0.009 95.558zM440.609 131.255c-9.32-9.32-21.729-14.459-34.923-14.459-7.017 0-14.106 1.517-20.483 4.389-3.396 1.526-7.442 0.813-10.097-1.842l-25.45-25.45-28.701 0.695c-0.082 0-0.154 0-0.216 0-4.488 0-8.317-3.305-8.941-7.776l-5.022-35.745-26.687-5.202c-3.396-0.659-6.114-3.197-6.999-6.548l-5.952-22.397-20.88-0.767-3.838 9.049 114.605 114.605c2.483 2.474 3.296 6.187 2.095 9.483-6.584 18.053-2.086 38.464 11.452 52.001 9.356 9.356 21.792 14.504 35.022 14.504s25.657-5.147 35.014-14.504c19.3-19.308 19.3-50.728 0-70.036zM427.243 174.135c0-7.616-6.174-13.791-13.791-13.791-7.616 0-13.791 6.174-13.791 13.791 0 7.616 6.174 13.791 13.791 13.791 7.616 0 13.791-6.174 13.791-13.791zM214.326 69.158h-159.047c-2.068 0-3.748 1.77-3.748 3.947v45.562c0 1.644 0.984 3.134 2.447 3.693 110.685 42.808 129.515 61.149 133.344 73.432 0.262 0.867 0.406 1.77 0.406 2.682v18.225c0 2.366-0.93 4.633-2.574 6.313-11.136 11.379-19.76 27.21-24.953 45.76-0.56 2.005-1.788 3.748-3.495 4.949-5.356 3.775-8.553 10.034-8.553 16.743 0 5.952 2.537 10.34 4.678 12.969 1.31 1.607 2.023 3.613 2.023 5.69v40.803c0 39.917 24.167 61.899 68.041 61.899 44.496 0 68.013-21.404 68.013-61.899v-40.785c0-2.068 0.714-4.082 2.023-5.698 2.14-2.628 4.696-7.017 4.696-12.977 0-6.728-3.197-12.987-8.553-16.744-1.707-1.201-2.953-2.953-3.513-4.967-5.175-18.541-13.8-34.364-24.935-45.743-1.652-1.689-2.574-3.955-2.574-6.313v-18.225c0-0.912 0.144-1.815 0.406-2.692 1.31-4.163 4.001-12.824 48.904-36.576 4.425-2.348 9.871-0.641 12.21 3.757 2.339 4.407 0.65 9.88-3.757 12.21-30.344 16.058-38.039 23.589-39.7 25.495v12.445c11.416 12.617 20.338 29.053 26 47.883 8.553 7.234 13.574 18.008 13.574 29.477 0 7.785-2.312 15.217-6.71 21.648v37.804c0 50.818-31.374 79.962-86.076 79.962-53.916 0-86.102-29.893-86.102-79.962v-37.822c-4.335-6.403-6.692-13.962-6.692-21.63 0-11.442 5.012-22.216 13.555-29.459 5.672-18.848 14.595-35.275 26.018-47.901v-12.887c-2.845-5.147-20.374-21.639-122.191-61.023-8.381-3.233-14.007-11.488-14.007-20.536v-45.562c0-12.138 9.78-22.009 21.81-22.009h159.047c4.994 0 9.031 4.037 9.031 9.031s-4.055 9.031-9.049 9.031z" />
<glyph unicode="&#xe61b;" d="M446.515 345.59l-28.259 28.231c-2.14 2.212-5.094 3.432-8.308 3.432-0.497 0-1.58-0.090-2.068-0.171-2.881-0.478-5.644-1.942-7.712-4.055l-24.284-24.276c-2.574-2.583-3.324-6.611-1.923-9.979 0.163-0.38 31.961-38.111 40.947-38.111 2.402 0 4.733 0.966 6.43 2.655l24.257 24.257c2.185 2.177 3.63 4.94 4.064 7.677 0.668 3.911-0.478 7.677-3.143 10.341zM414.464 321.983c-5.716 5.436-14.468 14.188-19.896 19.904l15.046 15.046 19.904-19.895-15.055-15.055zM320.829 259.325l-85.335-85.344c-3.531-3.531-3.531-9.239 0-12.77 1.761-1.761 4.073-2.646 6.385-2.646s4.624 0.885 6.385 2.646l85.335 85.344c3.531 3.531 3.531 9.239 0 12.77s-9.239 3.531-12.77 0zM284.769 354.901v21.313h5.491c3.089 0 6.060 0.949 8.119 2.475 3.269 2.239 5.229 5.834 5.229 9.627v40.071c0 3.748-1.842 7.216-4.967 9.447-2.33 1.707-5.31 2.646-8.39 2.646h-79.98c-3.053 0-6.014-0.93-8.335-2.61-3.179-2.294-5.003-5.753-5.003-9.483v-40.071c0-3.757 1.843-7.225 5.12-9.573 2.33-1.635 5.247-2.529 8.209-2.529h5.509v-21.313c-84.522-16.193-148.643-90.591-148.643-179.773 0-100.986 82.165-183.142 183.142-183.142s183.141 82.156 183.141 183.142c0.009 89.182-64.112 163.58-148.643 179.773zM224.82 394.277h-9.817v28.141h70.551v-28.15h-9.817c-4.994 0-9.031-4.046-9.031-9.031v-27.816c-5.418 0.488-10.882 0.831-16.428 0.831-5.545 0-11-0.352-16.418-0.831v27.806c-0.009 5.003-4.046 9.049-9.040 9.049zM250.27 10.049c-91.025 0-165.079 74.055-165.079 165.079s74.055 165.079 165.079 165.079 165.080-74.055 165.080-165.079-74.046-165.079-165.079-165.079z" />
</font>
</defs>
</svg>
