<svg width="170" height="44" viewBox="0 0 170 44" fill="none" xmlns="http://www.w3.org/2000/svg">
<path fill-rule="evenodd" clip-rule="evenodd" d="M6.29609 37.3109C10.3274 41.4097 15.795 43.7124 21.4962 43.7124C27.1973 43.7124 32.665 41.4097 36.6963 37.3109C40.7276 33.212 42.9924 27.6528 42.9924 21.8562C42.9904 20.1458 42.7943 18.4414 42.4077 16.7768C42.2663 16.1717 41.8943 15.6484 41.3734 15.3221C40.8526 14.9958 40.2256 14.8933 39.6304 15.0371C39.0352 15.1808 38.5205 15.5591 38.1996 16.0887C38.0407 16.3509 37.9342 16.6424 37.8861 16.9464C37.838 17.2505 37.8493 17.5612 37.9193 17.8609C38.7758 21.498 38.4409 25.3199 36.9656 28.7458C35.4903 32.1717 32.9552 35.0142 29.7457 36.8411C26.5362 38.6681 22.8277 39.3796 19.1841 38.8676C15.5404 38.3556 12.1608 36.648 9.55899 34.0044C6.95716 31.3608 5.27537 27.9258 4.76928 24.2215C4.26319 20.5172 4.96047 16.7461 6.75513 13.4816C8.54978 10.2171 11.3437 7.63756 14.7121 6.13519C18.0806 4.63281 21.8393 4.28972 25.4171 5.15807C26.0123 5.30182 26.6393 5.19929 27.1601 4.87302C27.681 4.54675 28.053 4.02348 28.1944 3.41831C28.3358 2.81314 28.2349 2.17565 27.9141 1.64609C27.5932 1.11652 27.0785 0.738245 26.4833 0.594489C24.849 0.201424 23.1755 0.00193459 21.4962 0C15.795 0 10.3274 2.3027 6.29609 6.40154C2.26477 10.5004 0 16.0596 0 21.8562C0 27.6528 2.26477 33.212 6.29609 37.3109ZM34.79 4.84934C35.6986 4.84934 36.5704 5.21493 37.2148 5.86624C37.795 6.44935 38.1525 7.22318 38.2233 8.04953C38.2942 8.87588 38.0739 9.70094 37.6017 10.3774C37.4914 10.5369 37.3708 10.6888 37.2406 10.832C36.6768 11.404 35.9353 11.7593 35.1425 11.8374H34.7212H34.5836C33.706 11.9108 32.8542 12.1756 32.0863 12.6138C31.3184 13.052 30.6523 13.6532 30.1334 14.3766C29.6144 15.1 29.2549 15.9285 29.0792 16.8058C28.9034 17.6832 28.9157 18.5887 29.115 19.4608V19.5307C29.1471 19.6786 29.1873 19.8245 29.2354 19.9679C29.4894 21.0807 29.5088 22.2356 29.2924 23.3567C29.0761 24.4777 28.6288 25.5395 27.98 26.4723C27.7247 26.8636 27.437 27.2322 27.1202 27.5738C25.6276 29.0914 23.6033 29.9439 21.4925 29.9439C19.3817 29.9439 17.3573 29.0914 15.8648 27.5738C14.3722 26.0563 13.5337 23.998 13.5337 21.8519C13.5337 19.7057 14.3722 17.6475 15.8648 16.1299L16.1055 15.9114C17.5405 14.5565 19.4183 13.7903 21.3764 13.7607C22.0453 13.7489 22.713 13.8253 23.3626 13.988L23.8613 14.1191C24.7118 14.3228 25.5952 14.3393 26.4525 14.1674C27.3097 13.9956 28.1209 13.6395 28.8317 13.1229C29.5426 12.6063 30.1366 11.9412 30.574 11.1722C31.0113 10.4031 31.282 9.54791 31.3678 8.66384V8.41031V8.03438C31.441 7.26108 31.7611 6.53338 32.2792 5.96241C32.31 5.93238 32.3388 5.90025 32.3652 5.86624C33.0096 5.21493 33.8814 4.84934 34.79 4.84934ZM78.3493 7.84172C76.2561 7.8433 74.2463 8.67574 72.7478 10.1617C71.2494 11.6477 70.3807 13.6698 70.3269 15.7974C70.3269 20.4834 73.6202 23.753 78.3493 23.753C80.444 23.7537 82.456 22.9223 83.9563 21.4361C85.4566 19.9498 86.3265 17.9264 86.3803 15.7974C86.3803 11.1114 83.0785 7.84172 78.3493 7.84172ZM81.6855 15.7974C81.7106 16.2544 81.6423 16.7118 81.4849 17.1406C81.3275 17.5694 81.0844 17.9605 80.7709 18.289C80.4575 18.6176 80.0805 18.8765 79.6637 19.0496C79.2469 19.2226 78.7994 19.306 78.3493 19.2944C77.9007 19.3008 77.4555 19.2139 77.041 19.0391C76.6266 18.8642 76.2516 18.6051 75.9392 18.2777C75.6268 17.9502 75.3835 17.5613 75.2243 17.1348C75.065 16.7083 74.9931 16.2531 75.0131 15.7974C74.988 15.3404 75.0563 14.883 75.2138 14.4542C75.3712 14.0253 75.6143 13.6343 75.9277 13.3057C76.2412 12.9772 76.6182 12.7182 77.035 12.5452C77.4517 12.3722 77.8993 12.2888 78.3493 12.3004C78.8008 12.2834 79.2507 12.3631 79.6699 12.5343C80.0892 12.7054 80.4683 12.9642 80.7829 13.294C81.0974 13.6237 81.3403 14.0169 81.4958 14.4482C81.6513 14.8794 81.716 15.3391 81.6855 15.7974ZM102.312 10.0622C103.845 8.64006 105.843 7.84853 107.918 7.84162C112.605 7.84162 115.881 11.1113 115.855 15.8322V22.7388C115.853 22.9274 115.777 23.1075 115.645 23.2401C115.513 23.3726 115.335 23.447 115.15 23.4469H111.857C111.672 23.4469 111.495 23.3723 111.364 23.2395C111.233 23.1067 111.16 22.9266 111.16 22.7388V15.8322C111.185 15.3752 111.117 14.9179 110.959 14.489C110.802 14.0602 110.559 13.6692 110.246 13.3406C109.932 13.0121 109.555 12.7531 109.138 12.5801C108.721 12.407 108.274 12.3237 107.824 12.3353C107.372 12.3183 106.923 12.398 106.503 12.5691C106.084 12.7403 105.705 12.9991 105.39 13.3288C105.076 13.6585 104.833 14.0517 104.677 14.483C104.522 14.9143 104.457 15.374 104.488 15.8322V22.7388C104.488 22.9266 104.414 23.1067 104.284 23.2395C104.153 23.3723 103.976 23.4469 103.791 23.4469H100.541C100.356 23.4469 100.179 23.3723 100.049 23.2395C99.9179 23.1067 99.8445 22.9266 99.8445 22.7388V15.8322C99.8749 15.374 99.8103 14.9143 99.6548 14.483C99.4993 14.0517 99.2564 13.6585 98.9419 13.3288C98.6273 12.9991 98.2482 12.7403 97.8289 12.5691C97.4097 12.398 96.9598 12.3183 96.5083 12.3353C96.0583 12.3237 95.6107 12.407 95.1939 12.5801C94.7772 12.7531 94.4001 13.0121 94.0867 13.3406C93.7732 13.6692 93.5302 14.0602 93.3727 14.489C93.2153 14.9179 93.147 15.3752 93.1721 15.8322V22.7388C93.1721 22.9266 93.0987 23.1067 92.9681 23.2395C92.8375 23.3723 92.6603 23.4469 92.4756 23.4469H89.1738C89.0772 23.4507 88.9809 23.434 88.8911 23.3979C88.8012 23.3617 88.7197 23.307 88.6517 23.2371C88.5838 23.1672 88.5309 23.0837 88.4965 22.9919C88.462 22.9001 88.4467 22.802 88.4515 22.7038V15.7973C88.4515 10.884 92.6562 7.84162 96.5513 7.84162C98.6851 7.77656 100.757 8.57522 102.312 10.0622ZM125.984 7.84172C123.89 7.84324 121.88 8.67539 120.38 10.1612C118.88 11.6469 118.009 13.6691 117.953 15.7974C117.953 20.4834 121.255 23.753 125.984 23.753C128.078 23.7537 130.089 22.922 131.588 21.4355C133.087 19.9491 133.955 17.9256 134.007 15.7974C134.007 11.1114 130.705 7.84172 125.984 7.84172ZM129.321 15.7974C129.346 16.2544 129.277 16.7118 129.12 17.1406C128.962 17.5694 128.719 17.9605 128.406 18.289C128.092 18.6176 127.715 18.8765 127.299 19.0496C126.882 19.2226 126.434 19.306 125.984 19.2944C125.164 19.1756 124.414 18.76 123.872 18.1241C123.329 17.4881 123.03 16.6743 123.03 15.8324C123.03 14.9904 123.329 14.1766 123.872 13.5406C124.414 12.9047 125.164 12.4891 125.984 12.3703C126.43 12.3541 126.873 12.432 127.288 12.599C127.702 12.7659 128.078 13.0184 128.391 13.3404C128.705 13.6624 128.949 14.047 129.109 14.4699C129.269 14.8928 129.341 15.3448 129.321 15.7974ZM144.188 7.83282C145.284 7.87311 146.356 8.17244 147.318 8.70707V1.04866C147.318 0.871625 147.387 0.701713 147.509 0.575717C147.631 0.449721 147.798 0.377784 147.972 0.375485H151.351C151.525 0.377784 151.691 0.449721 151.814 0.575717C151.936 0.701713 152.004 0.871625 152.004 1.04866V15.7797C151.953 17.908 151.085 19.9314 149.586 21.4179C148.087 22.9043 146.076 23.736 143.982 23.7354C139.253 23.7354 135.951 20.4657 135.951 15.7797C135.965 14.7038 136.191 13.6416 136.615 12.6558C137.04 11.67 137.654 10.7806 138.421 10.04C139.189 9.29931 140.095 8.72244 141.085 8.34338C142.076 7.96431 143.131 7.79071 144.188 7.83282ZM147.118 17.1404C147.275 16.7116 147.343 16.2542 147.318 15.7972C147.339 15.3446 147.267 14.8926 147.107 14.4697C146.947 14.0468 146.702 13.6622 146.389 13.3402C146.075 13.0182 145.7 12.7658 145.285 12.5988C144.871 12.4318 144.427 12.354 143.982 12.3702C143.162 12.4889 142.412 12.9045 141.869 13.5405C141.327 14.1765 141.028 14.9902 141.028 15.8322C141.028 16.6742 141.327 17.4879 141.869 18.1239C142.412 18.7599 143.162 19.1754 143.982 19.2942C144.432 19.3058 144.88 19.2224 145.296 19.0494C145.713 18.8764 146.09 18.6174 146.404 18.2889C146.717 17.9603 146.96 17.5693 147.118 17.1404ZM161.978 7.84172C159.884 7.84324 157.873 8.67539 156.373 10.1612C154.873 11.6469 154.003 13.6691 153.947 15.7974C153.947 20.4834 157.248 23.753 161.978 23.753C164.071 23.7537 166.083 22.922 167.582 21.4355C169.08 19.9491 169.948 17.9256 170 15.7974C170 11.1114 166.698 7.84172 161.978 7.84172ZM165.314 15.7974C165.339 16.2544 165.271 16.7118 165.113 17.1406C164.956 17.5694 164.713 17.9605 164.399 18.289C164.086 18.6176 163.709 18.8765 163.292 19.0496C162.875 19.2226 162.428 19.306 161.978 19.2944C161.529 19.3008 161.084 19.2139 160.669 19.0391C160.255 18.8642 159.88 18.6051 159.568 18.2777C159.255 17.9502 159.012 17.5613 158.853 17.1348C158.693 16.7083 158.621 16.2531 158.641 15.7974C158.616 15.3404 158.685 14.883 158.842 14.4542C158.999 14.0253 159.243 13.6343 159.556 13.3057C159.869 12.9772 160.246 12.7182 160.663 12.5452C161.08 12.3722 161.528 12.2888 161.978 12.3004C162.429 12.2834 162.879 12.3631 163.298 12.5343C163.717 12.7054 164.097 12.9642 164.411 13.294C164.726 13.6237 164.969 14.0169 165.124 14.4482C165.28 14.8794 165.344 15.3391 165.314 15.7974ZM65.0995 7.84157H70.1296C70.2263 7.84772 70.3196 7.88103 70.3988 7.9378C70.4781 7.99457 70.5404 8.07258 70.5787 8.16315C70.617 8.25373 70.6299 8.35334 70.6158 8.4509C70.6018 8.54846 70.5615 8.64016 70.4993 8.71581L64.9963 14.3197C64.9066 14.4088 64.8519 14.5281 64.8424 14.6552C64.8329 14.7823 64.8693 14.9086 64.9447 15.0104L70.5767 22.8786C70.6421 22.9583 70.6832 23.0556 70.695 23.1587C70.7068 23.2617 70.6887 23.366 70.6431 23.4588C70.5975 23.5516 70.5262 23.6288 70.4381 23.6811C70.3499 23.7333 70.2487 23.7583 70.1468 23.7529H65.7615C65.678 23.7532 65.5956 23.7336 65.521 23.6957C65.4463 23.6577 65.3814 23.6024 65.3316 23.5343L61.7461 18.5424C61.702 18.4788 61.6448 18.4258 61.5785 18.3871C61.5122 18.3484 61.4384 18.3249 61.3622 18.3182C61.286 18.3115 61.2094 18.3219 61.1375 18.3485C61.0657 18.3752 61.0005 18.4175 60.9464 18.4724L59.5191 19.9324C59.4691 19.9808 59.4295 20.0392 59.4029 20.1039C59.3762 20.1686 59.3631 20.2382 59.3643 20.3083V23.2196C59.3643 23.2904 59.3504 23.3604 59.3235 23.4257C59.2966 23.491 59.2572 23.5502 59.2076 23.5998C59.158 23.6494 59.0992 23.6885 59.0345 23.7148C58.9699 23.7411 58.9008 23.754 58.8312 23.7529H55.2026C55.133 23.754 55.0639 23.7411 54.9993 23.7148C54.9346 23.6885 54.8758 23.6494 54.8262 23.5998C54.7765 23.5502 54.7371 23.491 54.7102 23.4257C54.6833 23.3604 54.6695 23.2904 54.6695 23.2196V0.917519C54.6695 0.846338 54.6833 0.775854 54.7101 0.710092C54.7369 0.644329 54.7761 0.584576 54.8257 0.534243C54.8752 0.483911 54.9339 0.443985 54.9986 0.416746C55.0633 0.389506 55.1326 0.375485 55.2026 0.375485H58.857C58.927 0.375485 58.9963 0.389506 59.061 0.416746C59.1257 0.443985 59.1844 0.483911 59.2339 0.534243C59.2834 0.584576 59.3227 0.644329 59.3495 0.710092C59.3763 0.775854 59.3901 0.846338 59.3901 0.917519V12.1778C59.3961 12.2762 59.4289 12.371 59.4847 12.4516C59.5405 12.5322 59.6173 12.5955 59.7064 12.6345C59.7954 12.6734 59.8934 12.6865 59.9894 12.6723C60.0853 12.658 60.1755 12.617 60.2499 12.5538L64.7211 7.99893C64.8241 7.90122 64.9587 7.84524 65.0995 7.84157Z" fill="#252525"/>
<path d="M57.0455 41.1242L54.1309 30.4575H55.7986L57.846 38.7179H57.9435L60.073 30.4575H61.7253L63.8548 38.7231H63.9523L65.9946 30.4575H67.6675L64.7477 41.1242H63.1518L60.9402 33.1346H60.8581L58.6465 41.1242H57.0455Z" fill="#252525"/>
<path d="M69.0978 41.1242H67.4148L71.1966 30.4575H73.0285L76.8103 41.1242H75.1272L72.1562 32.395H72.0741L69.0978 41.1242ZM69.3801 36.9471H74.8399V38.3013H69.3801V36.9471Z" fill="#252525"/>
<path d="M78.3279 41.1242V30.4575H79.9135V39.7388H84.6755V41.1242H78.3279Z" fill="#252525"/>
<path d="M86.4843 41.1242V30.4575H88.0699V39.7388H92.8318V41.1242H86.4843Z" fill="#252525"/>
<path d="M94.6406 41.1242V30.4575H101.229V31.8429H96.2262V35.0929H100.886V36.4731H96.2262V39.7388H101.291V41.1242H94.6406Z" fill="#252525"/>
<path d="M102.829 31.8429V30.4575H110.962V31.8429H107.683V41.1242H106.103V31.8429H102.829Z" fill="#252525"/>
</svg>
