<?xml version="1.0" encoding="UTF-8" ?>
<!DOCTYPE svg PUBLIC "-//W3C//DTD SVG 1.1//EN" "http://www.w3.org/Graphics/SVG/1.1/DTD/svg11.dtd">
<svg width="157pt" height="176pt" viewBox="0 0 157 176" version="1.1" xmlns="http://www.w3.org/2000/svg">
<path fill="#ffffff" stroke="#ffffff" stroke-width="0.09375" opacity="1.00" d=" M 82.26 47.31 C 84.65 46.44 87.25 46.43 89.74 46.81 C 88.90 47.88 88.01 48.92 87.07 49.91 C 89.38 50.88 92.07 51.25 93.91 53.10 C 95.27 54.38 95.41 56.38 96.10 58.02 C 97.82 57.29 99.45 56.34 101.23 55.73 C 100.50 57.79 98.94 59.33 97.57 60.95 C 98.53 60.92 100.44 60.85 101.40 60.82 C 100.05 62.37 98.07 63.09 96.44 64.26 C 95.70 66.85 95.33 69.60 93.84 71.91 C 90.64 77.53 84.26 80.66 77.96 81.10 C 71.78 81.84 65.17 80.86 60.05 77.13 C 58.45 75.86 56.52 74.56 56.02 72.44 C 60.38 74.01 65.12 76.28 69.80 74.66 C 71.31 73.98 73.18 72.87 73.32 71.05 C 70.27 68.67 65.87 68.53 62.99 65.76 C 64.02 63.95 64.96 61.31 67.42 61.41 C 67.80 60.03 67.84 58.54 68.71 57.32 C 71.42 57.68 72.93 60.32 75.02 61.81 C 76.83 56.79 77.86 50.78 82.26 47.31 Z" />
<path fill="#6f6a63" stroke="#6f6a63" stroke-width="0.09375" opacity="1.00" d=" M 67.56 118.61 C 67.80 118.50 68.30 118.29 68.55 118.19 C 68.77 120.85 68.60 123.53 68.80 126.19 C 70.14 126.34 71.49 126.43 72.84 126.45 C 72.67 124.97 72.33 123.49 72.39 122.00 C 73.11 119.74 75.57 118.11 77.95 118.61 C 80.70 118.90 83.00 122.25 81.69 124.85 C 81.06 126.82 78.97 127.96 76.99 128.07 C 75.74 127.75 74.61 127.11 73.40 126.69 C 71.83 128.74 69.05 127.95 66.85 127.93 C 66.68 124.91 66.54 121.84 67.04 118.85 L 67.56 118.61 M 74.97 120.97 C 72.93 123.04 75.03 127.29 77.93 126.18 C 79.88 125.92 80.34 123.47 79.87 121.90 C 79.06 120.04 76.44 119.65 74.97 120.97 Z" />
<path fill="#706b65" stroke="#706b65" stroke-width="0.09375" opacity="1.00" d=" M 87.51 118.64 C 87.69 118.57 88.07 118.43 88.26 118.37 C 88.97 120.57 89.39 122.87 90.35 124.99 C 91.23 122.65 90.46 118.59 93.72 118.16 C 93.27 121.52 92.36 124.82 91.15 127.99 C 87.65 128.87 89.42 123.64 87.29 122.25 C 86.85 124.17 86.51 126.12 85.88 128.00 C 85.43 127.99 84.52 127.98 84.06 127.97 C 82.93 124.81 82.12 121.55 81.45 118.27 C 84.82 118.44 83.85 122.77 85.30 124.94 C 86.14 122.96 85.68 119.91 87.51 118.64 Z" />
<path fill="#6f6a63" stroke="#6f6a63" stroke-width="0.09375" opacity="1.00" d=" M 112.46 118.19 C 112.84 118.36 113.58 118.68 113.96 118.84 C 114.49 121.89 114.27 125.01 114.13 128.09 C 113.68 128.03 112.78 127.92 112.33 127.87 C 110.77 126.02 109.59 123.90 108.19 121.93 C 108.06 123.95 108.07 125.98 107.88 128.00 C 107.44 128.00 106.54 128.00 106.09 128.00 C 105.77 124.91 105.74 121.79 106.10 118.71 L 107.11 118.35 C 109.46 119.52 110.07 122.45 112.19 123.87 C 112.32 121.98 112.32 120.08 112.46 118.19 Z" />
<path fill="#6d6861" stroke="#6d6861" stroke-width="0.09375" opacity="1.00" d=" M 44.07 118.68 C 46.19 118.49 48.32 118.52 50.44 118.66 C 51.64 122.03 45.67 118.66 46.04 121.10 C 45.60 124.08 51.31 120.58 50.21 123.84 C 48.85 123.94 47.48 124.03 46.11 124.12 C 46.03 125.41 45.95 126.70 45.87 128.00 C 45.42 128.00 44.53 128.00 44.08 128.00 C 43.91 124.89 43.92 121.78 44.07 118.68 Z" />
<path fill="#706b65" stroke="#706b65" stroke-width="0.09375" opacity="1.00" d=" M 52.38 119.57 C 55.08 117.16 60.46 119.16 60.15 122.99 C 60.76 126.70 55.82 129.38 52.89 127.27 C 49.92 125.93 49.63 121.31 52.38 119.57 M 54.40 120.37 C 52.54 120.94 51.77 123.41 52.90 124.97 C 54.12 127.11 58.05 126.58 58.20 123.94 C 59.05 121.82 56.48 119.41 54.40 120.37 Z" />
<path fill="#76726b" stroke="#76726b" stroke-width="0.09375" opacity="1.00" d=" M 60.69 118.50 L 62.36 118.54 C 62.50 120.92 62.33 123.30 62.49 125.68 C 63.64 126.82 66.59 125.45 66.32 127.94 C 64.44 128.08 62.55 128.09 60.68 127.96 C 60.54 124.81 60.59 121.65 60.69 118.50 Z" />
<path fill="#706b65" stroke="#706b65" stroke-width="0.09375" opacity="1.00" d=" M 98.16 119.14 C 100.40 117.84 103.56 118.69 104.85 120.93 C 105.56 122.47 105.31 124.24 104.89 125.82 C 103.39 127.55 100.75 128.76 98.57 127.51 C 95.06 126.27 94.77 120.70 98.16 119.14 M 99.39 120.38 C 96.89 121.53 97.19 125.87 100.02 126.24 C 102.23 126.86 104.37 124.21 103.41 122.17 C 102.92 120.49 100.92 119.86 99.39 120.38 Z" />
<path fill="#f7f6f1" stroke="#f7f6f1" stroke-width="0.09375" opacity="1.00" d=" M 54.40 120.37 C 56.48 119.41 59.05 121.82 58.20 123.94 C 58.05 126.58 54.12 127.11 52.90 124.97 C 51.77 123.41 52.54 120.94 54.40 120.37 Z" />
<path fill="#f7f6f1" stroke="#f7f6f1" stroke-width="0.09375" opacity="1.00" d=" M 99.39 120.38 C 100.92 119.86 102.92 120.49 103.41 122.17 C 104.37 124.21 102.23 126.86 100.02 126.24 C 97.19 125.87 96.89 121.53 99.39 120.38 Z" />
<path fill="#f7f6f1" stroke="#f7f6f1" stroke-width="0.09375" opacity="1.00" d=" M 74.97 120.97 C 76.44 119.65 79.06 120.04 79.87 121.90 C 80.34 123.47 79.88 125.92 77.93 126.18 C 75.03 127.29 72.93 123.04 74.97 120.97 Z" />
<path fill="#6f6a63" stroke="#6f6a63" stroke-width="0.09375" opacity="1.00" d=" M 65.78 134.36 C 68.53 135.06 67.72 138.84 68.70 140.96 C 69.61 138.93 69.92 136.69 70.78 134.64 L 72.40 134.40 C 71.90 137.66 71.13 140.88 69.96 143.96 C 69.50 143.97 68.58 143.99 68.12 144.00 C 67.50 142.12 67.15 140.16 66.71 138.23 C 64.58 139.63 66.35 144.86 62.85 143.98 C 61.43 141.59 61.95 138.07 60.00 136.18 C 59.43 136.21 58.29 136.26 57.73 136.29 C 57.62 138.79 57.77 141.30 57.68 143.81 C 57.22 143.88 56.32 144.04 55.86 144.12 C 55.69 141.58 55.87 139.02 55.71 136.48 C 55.03 136.35 53.69 136.08 53.01 135.94 L 52.98 134.70 C 56.02 134.52 59.10 134.37 62.13 134.80 C 62.89 136.79 63.18 138.92 63.64 141.00 C 64.63 138.88 65.06 136.57 65.78 134.36 Z" />
<path fill="#6f6a63" stroke="#6f6a63" stroke-width="0.09375" opacity="1.00" d=" M 72.83 134.68 C 78.32 134.52 83.82 134.52 89.32 134.67 L 89.18 135.79 C 88.56 135.99 87.33 136.37 86.71 136.57 C 86.58 139.05 86.79 141.54 86.58 144.02 L 84.87 144.02 C 84.68 141.45 84.86 138.87 84.71 136.30 C 83.04 136.19 81.36 136.19 79.69 136.35 C 79.60 138.90 79.79 141.46 79.58 144.02 L 77.87 144.03 C 77.68 141.44 77.86 138.85 77.70 136.28 C 76.97 136.25 75.51 136.20 74.78 136.17 C 74.57 138.72 74.77 141.27 74.68 143.82 C 74.23 143.89 73.33 144.04 72.88 144.11 C 72.70 140.97 72.65 137.82 72.83 134.68 Z" />
<path fill="#6d6861" stroke="#6d6861" stroke-width="0.09375" opacity="1.00" d=" M 89.89 134.66 C 92.07 134.50 94.26 134.52 96.44 134.67 C 97.57 138.01 91.69 134.67 92.04 137.09 C 91.56 140.26 97.86 136.32 96.39 139.84 C 94.89 139.94 93.40 140.04 91.90 140.13 C 91.98 140.62 92.14 141.59 92.22 142.07 C 93.13 143.27 97.75 140.80 96.38 143.90 C 94.29 144.08 92.18 144.10 90.08 143.94 C 89.94 140.85 89.91 137.75 89.89 134.66 Z" />
<path fill="#77726b" stroke="#77726b" stroke-width="0.09375" opacity="1.00" d=" M 97.36 134.56 C 99.70 134.78 103.43 133.55 104.52 136.45 C 105.33 138.07 103.73 139.50 103.24 140.93 C 103.61 142.03 104.01 143.12 104.43 144.21 C 101.86 144.35 101.54 141.30 99.63 140.28 C 98.90 141.58 100.07 145.03 97.41 144.03 C 97.15 140.88 97.18 137.71 97.36 134.56 M 99.31 136.22 C 99.27 136.89 99.19 138.23 99.15 138.90 C 100.35 139.05 101.54 138.96 102.71 138.65 C 102.68 138.10 102.63 137.00 102.60 136.46 C 101.51 136.29 100.41 136.21 99.31 136.22 Z" />
<path fill="#f7f6f1" stroke="#f7f6f1" stroke-width="0.09375" opacity="1.00" d=" M 99.31 136.22 C 100.41 136.21 101.51 136.29 102.60 136.46 C 102.63 137.00 102.68 138.10 102.71 138.65 C 101.54 138.96 100.35 139.05 99.15 138.90 C 99.19 138.23 99.27 136.89 99.31 136.22 Z" />
</svg>
