<?xml version="1.0" encoding="UTF-8" ?>
<!DOCTYPE svg PUBLIC "-//W3C//DTD SVG 1.1//EN" "http://www.w3.org/Graphics/SVG/1.1/DTD/svg11.dtd">
<svg width="163pt" height="176pt" viewBox="0 0 163 176" version="1.1" xmlns="http://www.w3.org/2000/svg">
<path fill="#ffffff" stroke="#ffffff" stroke-width="0.09375" opacity="1.00" d=" M 96.40 43.54 C 97.96 42.98 101.19 42.34 100.93 44.95 C 100.96 55.51 100.43 66.48 96.44 76.39 C 91.92 87.31 75.69 90.69 67.41 82.24 C 74.00 69.48 82.06 57.37 92.00 46.97 C 93.32 45.67 94.57 44.12 96.40 43.54 Z" />
<path fill="#ffffff" stroke="#ffffff" stroke-width="0.09375" opacity="1.00" d=" M 76.18 50.27 L 77.56 49.73 C 72.90 58.87 68.11 68.01 64.32 77.58 C 64.08 77.66 63.61 77.82 63.37 77.90 C 60.61 72.76 60.12 66.32 62.81 61.06 C 65.38 55.65 70.89 52.53 76.18 50.27 Z" />
<path fill="#77726b" stroke="#77726b" stroke-width="0.09375" opacity="1.00" d=" M 85.51 117.36 C 88.84 118.87 86.70 124.12 87.10 127.10 C 83.24 126.60 86.03 120.26 85.51 117.36 Z" />
<path fill="#77726b" stroke="#77726b" stroke-width="0.09375" opacity="1.00" d=" M 97.50 117.40 C 100.27 117.24 97.89 122.59 100.99 121.64 C 104.77 123.08 101.93 115.92 104.85 117.90 C 105.60 120.87 105.24 124.01 105.09 127.04 C 102.25 128.12 103.88 124.47 103.15 123.33 C 101.90 123.19 100.66 123.16 99.41 123.23 C 98.93 124.70 99.97 128.20 97.34 126.80 C 97.14 123.67 97.21 120.52 97.50 117.40 Z" />
<path fill="#77726b" stroke="#77726b" stroke-width="0.09375" opacity="1.00" d=" M 111.54 117.32 C 115.32 118.52 111.13 124.54 115.00 125.82 C 118.89 124.65 114.65 118.35 118.49 117.38 C 118.79 119.78 118.91 122.23 118.53 124.63 C 117.99 127.79 112.63 128.30 111.64 125.20 C 110.99 122.63 111.19 119.92 111.54 117.32 Z" />
<path fill="#77726b" stroke="#77726b" stroke-width="0.09375" opacity="1.00" d=" M 35.27 118.24 C 36.64 117.58 40.48 116.55 40.31 119.05 C 37.57 118.87 34.05 120.19 35.33 123.65 C 35.58 126.69 40.92 124.10 40.16 126.96 C 34.50 129.71 30.11 121.42 35.27 118.24 Z" />
<path fill="#77726b" stroke="#77726b" stroke-width="0.09375" opacity="1.00" d=" M 41.92 117.80 C 44.80 116.61 43.05 120.43 43.88 121.50 C 45.10 121.64 46.33 121.66 47.56 121.56 C 47.91 120.30 47.38 116.22 49.60 118.23 C 49.85 121.08 49.81 123.95 49.67 126.81 C 47.03 128.19 48.07 124.70 47.59 123.23 C 46.34 123.17 45.10 123.20 43.86 123.33 C 43.12 124.45 44.75 128.12 41.92 127.03 C 41.66 123.96 41.67 120.87 41.92 117.80 Z" />
<path fill="#77726b" stroke="#77726b" stroke-width="0.09375" opacity="1.00" d=" M 54.40 118.14 C 58.38 116.45 58.20 123.02 59.62 125.46 C 61.20 128.50 57.63 126.52 56.87 125.17 C 54.24 123.72 53.60 127.55 51.13 127.05 C 52.08 124.03 53.08 121.02 54.40 118.14 M 55.24 120.31 C 54.17 121.01 53.69 123.36 55.31 123.71 C 57.72 124.41 57.12 120.05 55.24 120.31 Z" />
<path fill="#76716a" stroke="#76716a" stroke-width="0.09375" opacity="1.00" d=" M 59.32 117.86 C 61.77 117.70 64.23 117.70 66.69 117.86 C 67.69 120.37 63.19 118.43 64.05 120.90 C 63.34 122.89 65.56 127.81 62.08 127.00 C 61.29 124.27 63.88 119.00 59.40 119.01 L 59.32 117.86 Z" />
<path fill="#77726b" stroke="#77726b" stroke-width="0.09375" opacity="1.00" d=" M 70.93 117.83 C 74.56 117.03 73.38 122.08 74.39 124.13 C 75.96 122.16 74.99 118.05 78.01 117.67 C 79.67 119.25 79.36 122.15 80.54 124.15 C 81.66 122.16 80.47 117.44 83.68 117.69 C 83.35 120.76 82.45 123.75 81.54 126.70 C 77.86 128.46 78.82 122.96 77.58 120.98 C 75.83 122.96 77.15 128.03 73.28 126.99 C 72.32 123.99 71.56 120.92 70.93 117.83 Z" />
<path fill="#77726b" stroke="#77726b" stroke-width="0.09375" opacity="1.00" d=" M 88.52 117.93 C 91.01 117.70 93.53 117.65 96.02 117.89 C 97.07 120.24 93.71 118.77 93.29 119.91 C 93.14 122.30 93.29 124.70 93.11 127.10 C 89.69 127.43 91.96 122.93 91.23 120.94 C 91.97 118.69 87.86 120.20 88.52 117.93 Z" />
<path fill="#77726b" stroke="#77726b" stroke-width="0.09375" opacity="1.00" d=" M 121.22 118.26 C 122.67 117.55 126.66 116.51 126.36 119.24 C 125.54 119.29 123.90 119.37 123.09 119.41 C 122.61 122.08 127.58 122.01 126.69 124.99 C 126.22 127.67 122.73 127.35 120.73 126.96 C 119.03 123.56 124.70 127.11 124.45 124.19 C 122.31 122.99 119.02 121.07 121.22 118.26 Z" />
<path fill="#f7f6f1" stroke="#f7f6f1" stroke-width="0.09375" opacity="1.00" d=" M 55.24 120.31 C 57.12 120.05 57.72 124.41 55.31 123.71 C 53.69 123.36 54.17 121.01 55.24 120.31 Z" />
<path fill="#77726b" stroke="#77726b" stroke-width="0.09375" opacity="1.00" d=" M 75.51 133.62 C 78.05 134.08 76.23 140.31 76.66 142.89 C 73.13 143.58 72.61 138.66 70.28 136.87 C 69.56 138.77 71.72 144.11 68.34 142.81 C 68.48 139.87 67.58 136.36 68.85 133.76 C 72.07 133.93 72.70 138.01 74.70 140.01 C 74.94 137.89 74.24 135.49 75.51 133.62 Z" />
<path fill="#77726b" stroke="#77726b" stroke-width="0.09375" opacity="1.00" d=" M 59.35 134.36 C 64.94 130.23 69.57 140.23 63.92 142.82 C 58.76 145.52 55.10 137.30 59.35 134.36 M 61.27 135.28 C 58.82 136.31 59.14 141.31 62.00 141.65 C 65.44 141.32 65.08 134.23 61.27 135.28 Z" />
<path fill="#76716a" stroke="#76716a" stroke-width="0.09375" opacity="1.00" d=" M 82.58 134.17 C 86.51 133.75 83.68 140.27 84.43 142.82 C 80.48 143.29 83.33 136.72 82.58 134.17 Z" />
<path fill="#7f7b74" stroke="#7f7b74" stroke-width="0.09375" opacity="1.00" d=" M 86.91 133.85 C 89.14 133.66 94.39 133.11 93.19 136.75 C 91.19 139.04 93.53 141.03 94.43 143.12 C 91.72 143.53 90.87 140.61 89.27 139.09 C 88.68 140.58 89.46 143.65 86.90 143.11 C 86.65 140.03 86.64 136.93 86.91 133.85 M 88.61 135.36 C 88.14 136.93 88.79 138.75 90.78 137.77 C 92.50 136.24 90.30 134.59 88.61 135.36 Z" />
<path fill="#817c76" stroke="#817c76" stroke-width="0.09375" opacity="1.00" d=" M 97.12 134.12 C 98.49 133.51 102.58 132.56 102.06 135.17 C 100.11 135.34 96.98 135.11 97.00 137.91 C 96.28 140.99 99.68 141.85 102.00 141.41 C 102.87 143.94 99.55 143.14 98.08 143.18 C 93.96 142.29 93.61 136.05 97.12 134.12 Z" />
<path fill="#f7f6f1" stroke="#f7f6f1" stroke-width="0.09375" opacity="1.00" d=" M 61.27 135.28 C 65.08 134.23 65.44 141.32 62.00 141.65 C 59.14 141.31 58.82 136.31 61.27 135.28 Z" />
<path fill="#f7f6f1" stroke="#f7f6f1" stroke-width="0.09375" opacity="1.00" d=" M 88.61 135.36 C 90.30 134.59 92.50 136.24 90.78 137.77 C 88.79 138.75 88.14 136.93 88.61 135.36 Z" />
</svg>
