<?xml version="1.0" encoding="UTF-8" ?>
<!DOCTYPE svg PUBLIC "-//W3C//DTD SVG 1.1//EN" "http://www.w3.org/Graphics/SVG/1.1/DTD/svg11.dtd">
<svg width="158pt" height="176pt" viewBox="0 0 158 176" version="1.1" xmlns="http://www.w3.org/2000/svg">
<path fill="#f7f6f1" stroke="#f7f6f1" stroke-width="0.09375" opacity="1.00" d=" M 91.41 42.53 C 94.86 40.62 99.89 44.06 98.98 48.06 C 98.91 51.44 94.99 53.32 92.01 52.48 C 87.76 52.07 88.79 45.11 84.00 45.88 C 79.85 44.91 78.55 49.64 78.28 52.79 C 82.59 53.57 86.84 54.67 90.94 56.22 C 93.78 55.82 97.10 54.33 99.71 56.22 C 102.46 57.96 103.00 62.35 100.68 64.62 C 97.79 67.52 99.22 72.37 96.27 75.28 C 89.74 82.97 78.28 84.37 68.96 81.97 C 62.87 80.34 55.97 76.01 55.82 69.00 C 55.89 65.76 52.09 64.21 51.97 61.00 C 52.29 58.58 53.78 55.95 56.36 55.48 C 59.43 54.78 62.54 57.24 65.45 55.54 C 68.81 54.10 72.44 53.60 76.02 53.03 C 76.95 49.98 76.64 45.71 80.15 44.29 C 83.93 43.36 88.27 45.75 91.41 42.53 M 92.26 44.27 C 87.25 45.96 92.02 53.16 95.65 49.71 C 98.92 47.70 95.37 42.78 92.26 44.27 M 72.54 55.67 C 66.50 56.72 59.99 59.88 57.90 66.07 C 56.72 70.64 59.97 74.96 63.62 77.30 C 71.78 82.33 82.91 82.28 90.98 77.11 C 95.09 74.52 98.48 68.95 95.68 64.26 C 91.14 56.45 80.86 54.38 72.54 55.67 M 57.23 57.31 C 54.24 57.93 52.88 62.88 56.00 63.67 C 57.97 61.77 63.21 56.06 57.23 57.31 M 94.01 57.20 C 94.54 59.94 96.76 62.07 98.76 63.88 C 102.09 60.58 97.94 56.08 94.01 57.20 Z" />
<path fill="#f7f6f1" stroke="#f7f6f1" stroke-width="0.09375" opacity="1.00" d=" M 67.37 65.31 C 69.79 63.13 73.56 66.82 70.94 69.10 C 68.32 70.77 65.56 67.85 67.37 65.31 Z" />
<path fill="#f7f5f1" stroke="#f7f5f1" stroke-width="0.09375" opacity="1.00" d=" M 83.34 65.38 C 85.49 63.08 89.12 66.64 86.94 68.94 C 84.49 70.96 81.06 67.79 83.34 65.38 Z" />
<path fill="#f6f5f0" stroke="#f6f5f0" stroke-width="0.09375" opacity="1.00" d=" M 67.74 74.92 C 73.82 77.31 80.29 77.44 86.32 74.78 C 82.53 80.15 71.87 80.14 67.74 74.92 Z" />
<path fill="#77726b" stroke="#77726b" stroke-width="0.09375" opacity="1.00" d=" M 82.59 117.29 C 85.75 119.17 83.75 124.02 84.10 127.11 C 80.74 127.24 80.11 122.83 77.88 120.98 C 77.00 122.85 79.27 127.48 75.90 127.12 C 75.68 124.03 75.67 120.91 75.90 117.82 C 79.17 117.32 80.03 121.67 82.04 123.50 C 82.24 121.43 82.33 119.35 82.59 117.29 Z" />
<path fill="#77726b" stroke="#77726b" stroke-width="0.09375" opacity="1.00" d=" M 57.70 117.83 C 61.13 118.16 60.38 129.19 54.70 127.17 C 57.84 125.16 57.82 121.57 57.70 117.83 Z" />
<path fill="#77726b" stroke="#77726b" stroke-width="0.09375" opacity="1.00" d=" M 63.18 118.14 C 66.49 115.98 70.89 119.42 69.94 123.14 C 69.74 126.02 66.72 127.82 64.01 127.10 C 60.40 125.79 59.88 120.11 63.18 118.14 M 64.37 119.50 C 62.57 120.91 62.71 124.48 64.86 125.60 C 69.23 126.43 68.60 117.41 64.37 119.50 Z" />
<path fill="#76716a" stroke="#76716a" stroke-width="0.09375" opacity="1.00" d=" M 71.62 118.10 C 75.42 117.87 72.70 124.26 73.41 126.84 C 69.53 127.26 72.30 120.67 71.62 118.10 Z" />
<path fill="#7d7972" stroke="#7d7972" stroke-width="0.09375" opacity="1.00" d=" M 90.05 117.80 C 94.65 117.14 89.40 125.40 94.23 125.85 C 97.31 123.99 93.42 117.64 97.34 117.82 C 97.54 120.15 97.65 122.53 97.27 124.85 C 96.50 128.03 91.06 128.13 90.24 124.92 C 89.75 122.58 89.96 120.16 90.05 117.80 Z" />
<path fill="#77726b" stroke="#77726b" stroke-width="0.09375" opacity="1.00" d=" M 100.23 118.28 C 101.71 117.50 105.53 116.57 105.47 119.22 C 104.59 119.28 102.82 119.41 101.94 119.47 C 102.02 121.98 106.36 122.15 105.70 124.95 C 105.22 127.68 101.75 127.33 99.72 126.97 C 98.03 123.81 103.78 126.78 103.44 124.27 C 101.44 122.96 97.95 121.06 100.23 118.28 Z" />
<path fill="#f7f6f1" stroke="#f7f6f1" stroke-width="0.09375" opacity="1.00" d=" M 64.37 119.50 C 68.60 117.41 69.23 126.43 64.86 125.60 C 62.71 124.48 62.57 120.91 64.37 119.50 Z" />
<path fill="#77726b" stroke="#77726b" stroke-width="0.09375" opacity="1.00" d=" M 80.43 133.76 C 82.30 133.89 84.59 133.16 85.97 134.88 C 83.59 134.33 79.94 137.26 83.99 137.65 C 87.19 138.24 83.31 139.50 82.12 139.64 C 81.17 142.89 86.93 139.71 85.73 142.97 C 83.93 143.05 82.13 143.07 80.34 142.89 C 80.22 139.85 80.15 136.79 80.43 133.76 Z" />
<path fill="#77726b" stroke="#77726b" stroke-width="0.09375" opacity="1.00" d=" M 97.44 133.77 C 100.55 133.41 105.66 133.67 105.47 138.02 C 105.97 142.53 100.77 143.70 97.34 142.92 C 97.23 139.87 97.14 136.81 97.44 133.77 M 99.33 135.23 C 99.15 137.35 99.13 139.49 99.40 141.61 C 104.36 141.93 104.38 134.59 99.33 135.23 Z" />
<path fill="#77726b" stroke="#77726b" stroke-width="0.09375" opacity="1.00" d=" M 49.12 134.11 C 52.42 132.00 56.61 135.48 55.64 139.10 C 55.72 142.47 51.06 144.54 48.56 142.40 C 45.98 140.41 46.06 135.60 49.12 134.11 M 50.30 135.23 C 47.51 137.10 49.21 143.67 52.90 140.97 C 54.29 138.85 53.60 134.37 50.30 135.23 Z" />
<path fill="#7a756e" stroke="#7a756e" stroke-width="0.09375" opacity="1.00" d=" M 57.67 133.79 C 61.10 133.43 61.86 137.88 63.87 139.89 C 64.64 138.01 62.46 132.93 65.91 133.80 C 66.10 136.89 66.11 140.00 65.91 143.09 C 62.47 143.26 61.71 138.83 59.48 136.88 C 58.81 138.80 60.97 143.72 57.66 143.01 C 57.43 139.94 57.44 136.86 57.67 133.79 Z" />
<path fill="#7f7b74" stroke="#7f7b74" stroke-width="0.09375" opacity="1.00" d=" M 71.89 133.81 C 74.12 133.72 79.43 133.09 78.15 136.77 C 76.35 139.05 78.50 141.15 79.48 143.19 C 76.80 143.48 75.90 140.66 74.31 139.12 C 73.46 140.56 74.50 143.68 71.89 143.13 C 71.66 140.03 71.65 136.91 71.89 133.81 M 73.62 135.37 C 73.29 136.78 73.89 138.94 75.78 137.74 C 77.28 136.20 75.35 134.47 73.62 135.37 Z" />
<path fill="#77726b" stroke="#77726b" stroke-width="0.09375" opacity="1.00" d=" M 87.68 133.85 C 90.81 133.36 95.87 133.71 95.74 137.98 C 96.18 142.41 91.12 143.68 87.66 143.00 C 87.45 139.95 87.44 136.89 87.68 133.85 M 89.51 135.42 C 89.75 137.58 88.02 143.03 92.00 140.96 C 95.32 139.46 92.95 134.27 89.51 135.42 Z" />
<path fill="#76716a" stroke="#76716a" stroke-width="0.09375" opacity="1.00" d=" M 107.10 133.80 C 110.88 133.72 108.34 140.22 108.90 143.00 C 105.08 143.11 107.68 136.55 107.10 133.80 Z" />
<path fill="#76716a" stroke="#76716a" stroke-width="0.09375" opacity="1.00" d=" M 110.26 133.86 C 112.34 134.34 117.54 132.42 117.63 134.97 C 111.97 134.48 117.81 143.61 113.10 143.00 C 112.95 140.59 113.09 138.17 112.81 135.77 C 112.17 135.29 110.90 134.34 110.26 133.86 Z" />
<path fill="#f6f5f0" stroke="#f6f5f0" stroke-width="0.09375" opacity="1.00" d=" M 50.30 135.23 C 53.60 134.37 54.29 138.85 52.90 140.97 C 49.21 143.67 47.51 137.10 50.30 135.23 Z" />
<path fill="#f6f5f0" stroke="#f6f5f0" stroke-width="0.09375" opacity="1.00" d=" M 73.62 135.37 C 75.35 134.47 77.28 136.20 75.78 137.74 C 73.89 138.94 73.29 136.78 73.62 135.37 Z" />
<path fill="#f7f6f1" stroke="#f7f6f1" stroke-width="0.09375" opacity="1.00" d=" M 99.33 135.23 C 104.38 134.59 104.36 141.93 99.40 141.61 C 99.13 139.49 99.15 137.35 99.33 135.23 Z" />
<path fill="#f7f6f1" stroke="#f7f6f1" stroke-width="0.09375" opacity="1.00" d=" M 89.51 135.42 C 92.95 134.27 95.32 139.46 92.00 140.96 C 88.02 143.03 89.75 137.58 89.51 135.42 Z" />
</svg>
